<svg width="1190" height="614" viewBox="0 0 1190 614" fill="none" xmlns="http://www.w3.org/2000/svg">
<path fill-rule="evenodd" clip-rule="evenodd" d="M0.25109 -596.623H0.75109H594.751H595.251L1189.75 -596.623L1189.75 -595.623L1145.75 -595.623V-548.995L1189.75 -548.995V-547.995L1145.75 -547.995V-501.367L1189.75 -501.367V-500.367L1145.75 -500.367V-453.739L1189.75 -453.739V-452.739L1145.75 -452.739V-406.111L1189.75 -406.111V-405.111L1145.75 -405.111V-358.483L1189.75 -358.483V-357.483L1145.75 -357.483V-310.855H1189.75V-309.855H1145.75V-263.227H1189.75V-262.227H1145.75V-215.6H1189.75V-214.6H1145.75V-167.972H1189.75V-166.972H1145.75V-120.344H1189.75V-119.344H1145.75V-72.7159H1189.75V-71.7159H1145.75V-25.088H1189.75V-24.088H1145.75V18.2498H1189.75V19.2498H1145.75L1145.75 21.7496L1145.75 65.8777H1189.75V66.8777H1145.75V113.506H1189.75V114.506H1145.75V161.133L1189.75 161.134V162.134L1145.75 162.133V208.761H1189.75V209.761H1145.75V256.389H1189.75V257.389H1145.75V304.017H1189.75V305.017H1145.75V351.645H1189.75V352.645H1145.75V399.273H1189.75V400.273H1145.75V446.901H1189.75V447.901H1145.75V494.529H1189.75V495.529H1145.75V542.157H1189.75V543.157H1145.75V589.785H1189.75V590.785H1145.75V613.622H1144.75V590.785H1095.75V613.622H1094.75V590.785H1045.75V613.622H1044.75V590.785L995.751 590.785V613.622H994.751V590.785H945.751V613.622H944.751V590.785H895.751V613.622H894.751V590.785H845.751V613.622H844.751V590.785H795.751V613.622H794.751V590.785H745.751V613.622H744.751V590.785H695.751V613.622H694.751V590.785H645.751V613.622H644.751V590.785H595.751V613.622L594.751 613.622V590.785H551.251V613.622H550.251V590.785H501.251V613.622H500.251V590.785H451.251V613.622H450.251V590.785L401.251 590.785V613.622H400.251V590.785H351.251V613.622H350.251V590.785H301.251V613.622H300.251V590.785H251.251V613.622H250.251V590.785H201.251V613.622H200.251V590.785H151.251V613.622H150.251V590.785H101.251V613.622H100.251V590.785H51.251L51.251 613.622H50.251L50.251 590.785H1.25102L1.25101 613.622L0.251011 613.622L0.251124 18.7498L0.250977 18.7496L0.25109 -596.123L0.25109 -596.623ZM1.25098 18.2498H50.251L50.251 -24.0882H1.25098L1.25098 18.2498ZM51.251 18.2498H100.251L100.251 -24.0882H51.251L51.251 18.2498ZM101.251 18.2498H150.251V-24.0881L101.251 -24.0882L101.251 18.2498ZM151.251 18.2498H200.251L200.251 -24.0881H151.251V18.2498ZM201.251 18.2498H250.251V-24.0881H201.251L201.251 18.2498ZM251.251 18.2498L300.251 18.2498V-24.0881H251.251V18.2498ZM301.251 18.2498H350.251V-24.0881L301.251 -24.0881V18.2498ZM351.251 18.2498H400.251V-24.0881H351.251V18.2498ZM401.251 18.2498H450.251V-24.088L401.251 -24.0881V18.2498ZM451.251 18.2498H500.251V-24.088H451.251V18.2498ZM501.251 18.2498H550.251V-24.088H501.251V18.2498ZM551.251 18.2498L594.751 18.2498V-24.088H551.251V18.2498ZM594.751 19.2498H551.251V65.8777H594.751V21.7496L594.751 19.2498ZM594.751 66.8777H551.251V113.506H594.751V66.8777ZM594.751 114.506H551.251V161.133L594.751 161.134V114.506ZM594.751 162.134L551.251 162.133V208.761H594.751V162.134ZM594.751 209.761H551.251V256.389H594.751V209.761ZM594.751 257.389H551.251V304.017H594.751V257.389ZM594.751 305.017H551.251V351.645H594.751L594.751 305.017ZM594.751 352.645H551.251V399.273H594.751V352.645ZM594.751 400.273H551.251L551.251 446.901H594.751V400.273ZM594.751 447.901H551.251V494.529H594.751V447.901ZM594.751 495.529H551.251V542.157H594.751V495.529ZM594.751 543.157H551.251V589.785H594.751V543.157ZM551.251 -595.623L594.751 -595.623V-548.995L551.251 -548.995V-595.623ZM551.251 -547.995L594.751 -547.995V-501.367L551.251 -501.367V-547.995ZM551.251 -500.367L594.751 -500.367V-453.739L551.251 -453.739V-500.367ZM551.251 -452.739L594.751 -452.739V-406.111L551.251 -406.111V-452.739ZM551.251 -405.111L594.751 -405.111V-358.483L551.251 -358.483V-405.111ZM551.251 -357.483L594.751 -357.483V-310.855H551.251V-357.483ZM551.251 -309.855H594.751V-263.227H551.251V-309.855ZM551.251 -262.227H594.751V-215.6H551.251V-262.227ZM551.251 -214.6H594.751V-167.972H551.251L551.251 -214.6ZM551.251 -166.972H594.751V-120.344H551.251V-166.972ZM551.251 -119.344H594.751V-72.7159H551.251V-119.344ZM551.251 -71.7159H594.751V-25.088H551.251V-71.7159ZM1.25098 -25.0882H50.251L50.251 -71.7161H1.25099L1.25098 -25.0882ZM1.25099 -72.7161H50.251L50.251 -119.344H1.251L1.25099 -72.7161ZM1.251 -120.344H50.251L50.251 -166.972H1.25101L1.251 -120.344ZM1.25101 -167.972H50.251L50.251 -214.6H1.25102L1.25101 -167.972ZM1.25102 -215.6H50.251L50.251 -262.228H1.25103L1.25102 -215.6ZM1.25103 -263.228H50.251L50.251 -309.856H1.25104L1.25103 -263.228ZM1.25104 -310.856H50.251L50.251 -357.483L1.25105 -357.484L1.25104 -310.856ZM1.25105 -358.484L50.251 -358.483L50.2511 -405.111L1.25105 -405.111L1.25105 -358.484ZM1.25105 -406.111L50.2511 -406.111L50.2511 -452.739L1.25106 -452.739L1.25105 -406.111ZM1.25106 -453.739L50.2511 -453.739L50.2511 -500.367L1.25107 -500.367L1.25106 -453.739ZM1.25107 -501.367L50.2511 -501.367L50.2511 -547.995L1.25108 -547.995L1.25107 -501.367ZM1.25108 -548.995L50.2511 -548.995L50.2511 -595.623L1.25109 -595.623L1.25108 -548.995ZM51.2511 -595.623L51.2511 -548.995L100.251 -548.995L100.251 -595.623L51.2511 -595.623ZM101.251 -595.623L101.251 -548.995L150.251 -548.995V-595.623L101.251 -595.623ZM151.251 -595.623V-548.995L200.251 -548.995L200.251 -595.623L151.251 -595.623ZM201.251 -595.623L201.251 -548.995L250.251 -548.995V-595.623L201.251 -595.623ZM251.251 -595.623V-548.995L300.251 -548.995V-595.623L251.251 -595.623ZM301.251 -595.623V-548.995L350.251 -548.995V-595.623L301.251 -595.623ZM351.251 -595.623V-548.995L400.251 -548.995V-595.623L351.251 -595.623ZM401.251 -595.623V-548.995L450.251 -548.995V-595.623L401.251 -595.623ZM451.251 -595.623V-548.995L500.251 -548.995V-595.623L451.251 -595.623ZM501.251 -595.623V-548.995L550.251 -548.995V-595.623L501.251 -595.623ZM550.251 -547.995L501.251 -547.995V-501.367L550.251 -501.367V-547.995ZM550.251 -500.367L501.251 -500.367V-453.739H550.251V-500.367ZM550.251 -452.739H501.251V-406.111H550.251V-452.739ZM550.251 -405.111H501.251L501.251 -358.483H550.251V-405.111ZM550.251 -357.483H501.251V-310.855L550.251 -310.855V-357.483ZM550.251 -309.855L501.251 -309.855V-263.227L550.251 -263.227V-309.855ZM550.251 -262.227L501.251 -262.227V-215.6L550.251 -215.6V-262.227ZM550.251 -214.6L501.251 -214.6V-167.972L550.251 -167.972L550.251 -214.6ZM550.251 -166.972L501.251 -166.972V-120.344L550.251 -120.344V-166.972ZM550.251 -119.344L501.251 -119.344V-72.7159H550.251V-119.344ZM550.251 -71.7159H501.251L501.251 -25.088H550.251V-71.7159ZM500.251 -25.088L500.251 -71.7159H451.251L451.251 -25.088H500.251ZM450.251 -25.088L450.251 -71.7159L401.251 -71.7159L401.251 -25.0881L450.251 -25.088ZM400.251 -25.0881L400.251 -71.7159H351.251L351.251 -25.0881H400.251ZM350.251 -25.0881L350.251 -71.7159L301.251 -71.716L301.251 -25.0881L350.251 -25.0881ZM300.251 -25.0881L300.251 -71.716H251.251V-25.0881H300.251ZM250.251 -25.0881V-71.716H201.251V-25.0881H250.251ZM200.251 -25.0881V-71.716H151.251L151.251 -25.0881H200.251ZM150.251 -25.0881L150.251 -71.716L101.251 -71.7161V-25.0882L150.251 -25.0881ZM100.251 -25.0882V-71.7161H51.251L51.251 -25.0882H100.251ZM51.251 -72.7161H100.251L100.251 -119.344L51.251 -119.344L51.251 -72.7161ZM51.251 -120.344L100.251 -120.344L100.251 -166.972L51.251 -166.972L51.251 -120.344ZM51.251 -167.972L100.251 -167.972L100.251 -214.6L51.251 -214.6L51.251 -167.972ZM51.251 -215.6L100.251 -215.6L100.251 -262.228L51.251 -262.228L51.251 -215.6ZM51.251 -263.228L100.251 -263.228V-309.856L51.251 -309.856L51.251 -263.228ZM51.251 -310.856L100.251 -310.856L100.251 -357.483L51.251 -357.483L51.251 -310.856ZM51.251 -358.483L100.251 -358.483L100.251 -405.111L51.2511 -405.111L51.251 -358.483ZM51.2511 -406.111L100.251 -406.111L100.251 -452.739L51.2511 -452.739L51.2511 -406.111ZM51.2511 -453.739L100.251 -453.739L100.251 -500.367L51.2511 -500.367L51.2511 -453.739ZM51.2511 -501.367L100.251 -501.367L100.251 -547.995L51.2511 -547.995L51.2511 -501.367ZM101.251 -547.995L101.251 -501.367L150.251 -501.367L150.251 -547.995L101.251 -547.995ZM151.251 -547.995L151.251 -501.367L200.251 -501.367V-547.995L151.251 -547.995ZM201.251 -547.995V-501.367L250.251 -501.367V-547.995L201.251 -547.995ZM251.251 -547.995V-501.367L300.251 -501.367V-547.995L251.251 -547.995ZM301.251 -547.995V-501.367L350.251 -501.367V-547.995L301.251 -547.995ZM351.251 -547.995V-501.367L400.251 -501.367V-547.995L351.251 -547.995ZM401.251 -547.995V-501.367L450.251 -501.367V-547.995L401.251 -547.995ZM451.251 -547.995V-501.367L500.251 -501.367V-547.995L451.251 -547.995ZM500.251 -500.367L451.251 -500.367V-453.739L500.251 -453.739V-500.367ZM500.251 -452.739L451.251 -452.739V-406.111L500.251 -406.111V-452.739ZM500.251 -405.111L451.251 -405.111L451.251 -358.483L500.251 -358.483L500.251 -405.111ZM500.251 -357.483L451.251 -357.483V-310.855H500.251V-357.483ZM500.251 -309.855H451.251V-263.227H500.251V-309.855ZM500.251 -262.227H451.251V-215.6H500.251V-262.227ZM500.251 -214.6H451.251V-167.972H500.251V-214.6ZM500.251 -166.972H451.251V-120.344H500.251V-166.972ZM500.251 -119.344H451.251V-72.7159H500.251V-119.344ZM450.251 -72.7159V-119.344H401.251V-72.7159L450.251 -72.7159ZM400.251 -72.7159V-119.344L351.251 -119.344V-72.7159H400.251ZM350.251 -72.7159V-119.344H301.251V-72.716L350.251 -72.7159ZM300.251 -72.716V-119.344H251.251V-72.716H300.251ZM250.251 -72.716V-119.344L201.251 -119.344L201.251 -72.716H250.251ZM200.251 -72.716L200.251 -119.344L151.251 -119.344V-72.716H200.251ZM150.251 -72.716V-119.344H101.251L101.251 -72.7161L150.251 -72.716ZM101.251 -120.344H150.251L150.251 -166.972H101.251L101.251 -120.344ZM101.251 -167.972H150.251L150.251 -214.6H101.251L101.251 -167.972ZM101.251 -215.6H150.251V-262.228H101.251L101.251 -215.6ZM101.251 -263.228H150.251L150.251 -309.856H101.251V-263.228ZM101.251 -310.856H150.251V-357.483L101.251 -357.483L101.251 -310.856ZM101.251 -358.483L150.251 -358.483L150.251 -405.111L101.251 -405.111L101.251 -358.483ZM101.251 -406.111L150.251 -406.111V-452.739L101.251 -452.739L101.251 -406.111ZM101.251 -453.739L150.251 -453.739L150.251 -500.367L101.251 -500.367L101.251 -453.739ZM151.251 -500.367L151.251 -453.739L200.251 -453.739L200.251 -500.367L151.251 -500.367ZM201.251 -500.367L201.251 -453.739H250.251L250.251 -500.367L201.251 -500.367ZM251.251 -500.367L251.251 -453.739L300.251 -453.739V-500.367L251.251 -500.367ZM301.251 -500.367V-453.739L350.251 -453.739V-500.367L301.251 -500.367ZM351.251 -500.367V-453.739H400.251V-500.367L351.251 -500.367ZM401.251 -500.367V-453.739L450.251 -453.739V-500.367L401.251 -500.367ZM450.251 -452.739L401.251 -452.739V-406.111L450.251 -406.111V-452.739ZM450.251 -405.111L401.251 -405.111L401.251 -358.483L450.251 -358.483L450.251 -405.111ZM450.251 -357.483L401.251 -357.483V-310.855H450.251V-357.483ZM450.251 -309.855H401.251V-263.227H450.251V-309.855ZM450.251 -262.227H401.251V-215.6H450.251V-262.227ZM450.251 -214.6H401.251V-167.972H450.251V-214.6ZM450.251 -166.972H401.251V-120.344H450.251V-166.972ZM400.251 -120.344V-166.972L351.251 -166.972V-120.344L400.251 -120.344ZM350.251 -120.344V-166.972H301.251V-120.344H350.251ZM300.251 -120.344V-166.972H251.251L251.251 -120.344H300.251ZM250.251 -120.344L250.251 -166.972L201.251 -166.972L201.251 -120.344L250.251 -120.344ZM200.251 -120.344L200.251 -166.972L151.251 -166.972L151.251 -120.344L200.251 -120.344ZM151.251 -167.972L200.251 -167.972L200.251 -214.6L151.251 -214.6L151.251 -167.972ZM151.251 -215.6L200.251 -215.6L200.251 -262.228L151.251 -262.228V-215.6ZM151.251 -263.228L200.251 -263.228L200.251 -309.855L151.251 -309.856L151.251 -263.228ZM151.251 -310.856L200.251 -310.855L200.251 -357.483L151.251 -357.483V-310.856ZM151.251 -358.483L200.251 -358.483L200.251 -405.111L151.251 -405.111L151.251 -358.483ZM151.251 -406.111L200.251 -406.111V-452.739L151.251 -452.739V-406.111ZM201.251 -452.739V-406.111H250.251V-452.739H201.251ZM251.251 -452.739V-406.111L300.251 -406.111V-452.739L251.251 -452.739ZM301.251 -452.739V-406.111L350.251 -406.111V-452.739L301.251 -452.739ZM351.251 -452.739V-406.111H400.251V-452.739H351.251ZM400.251 -405.111H351.251L351.251 -358.483H400.251L400.251 -405.111ZM400.251 -357.483H351.251V-310.855L400.251 -310.855V-357.483ZM400.251 -309.855L351.251 -309.855V-263.228L400.251 -263.227V-309.855ZM400.251 -262.227L351.251 -262.228V-215.6L400.251 -215.6V-262.227ZM400.251 -214.6L351.251 -214.6V-167.972L400.251 -167.972V-214.6ZM350.251 -167.972V-214.6H301.251V-167.972H350.251ZM300.251 -167.972V-214.6H251.251V-167.972H300.251ZM250.251 -167.972V-214.6L201.251 -214.6L201.251 -167.972L250.251 -167.972ZM201.251 -215.6L250.251 -215.6V-262.228L201.251 -262.228L201.251 -215.6ZM201.251 -263.228L250.251 -263.228L250.251 -309.855L201.251 -309.855L201.251 -263.228ZM201.251 -310.855L250.251 -310.855V-357.483H201.251L201.251 -310.855ZM201.251 -358.483H250.251V-405.111H201.251L201.251 -358.483ZM251.251 -405.111V-358.483L300.251 -358.483L300.251 -405.111L251.251 -405.111ZM301.251 -405.111L301.251 -358.483L350.251 -358.483L350.251 -405.111L301.251 -405.111ZM350.251 -357.483L301.251 -357.483V-310.855H350.251V-357.483ZM350.251 -309.855H301.251V-263.228H350.251V-309.855ZM350.251 -262.228H301.251V-215.6H350.251V-262.228ZM300.251 -215.6V-262.228H251.251V-215.6H300.251ZM251.251 -263.228H300.251V-309.855H251.251L251.251 -263.228ZM251.251 -310.855H300.251V-357.483L251.251 -357.483V-310.855ZM1144.75 18.2498V-24.088H1095.75V18.2498H1144.75ZM1095.75 19.2498V21.7496V65.8777H1144.75L1144.75 21.7496L1144.75 19.2498H1095.75ZM1094.75 18.2498V-24.088H1045.75V18.2498H1094.75ZM1045.75 19.2498V21.7496V65.8777L1094.75 65.8777V21.7496V19.2498H1045.75ZM1044.75 18.2498V-24.088L995.751 -24.0881V18.2498H1044.75ZM995.751 19.2498L995.751 21.7496L995.751 65.8777H1044.75V21.7496V19.2498L995.751 19.2498ZM994.751 18.2498V-24.0881H945.751V18.2498H994.751ZM945.751 19.2498L945.751 21.7496L945.751 65.8777H994.751L994.751 21.7496L994.751 19.2498H945.751ZM944.751 18.2498V-24.0881L895.751 -24.0881V18.2498H944.751ZM895.751 19.2498L895.751 21.7496L895.751 65.8777H944.751L944.751 21.7496L944.751 19.2498H895.751ZM894.751 18.2498V-24.0881H845.751V18.2498L894.751 18.2498ZM845.751 19.2498L845.751 21.7496L845.751 65.8776L894.751 65.8777L894.751 21.7496L894.751 19.2498H845.751ZM844.751 18.2498V-24.0881H795.751L795.751 18.2498H844.751ZM794.751 18.2498L794.751 -24.0881H745.751V18.2498H794.751ZM744.751 18.2498V-24.0881L695.751 -24.0882V18.2498H744.751ZM694.751 18.2498V-24.0882H645.751V18.2498H694.751ZM644.751 18.2498V-24.0882H595.751V18.2498H644.751ZM644.751 -25.0882H595.751V-71.7161H644.751V-25.0882ZM644.751 -72.7161H595.751V-119.344H644.751V-72.7161ZM644.751 -120.344H595.751L595.751 -166.972H644.751L644.751 -120.344ZM644.751 -167.972H595.751V-214.6H644.751V-167.972ZM644.751 -215.6H595.751V-262.228H644.751V-215.6ZM644.751 -263.228H595.751V-309.856H644.751V-263.228ZM644.751 -310.856H595.751V-357.484L644.751 -357.483V-310.856ZM644.751 -358.483L595.751 -358.484V-405.111L644.751 -405.111V-358.483ZM644.751 -406.111L595.751 -406.111V-452.739L644.751 -452.739V-406.111ZM644.751 -453.739L595.751 -453.739L595.751 -500.367L644.751 -500.367L644.751 -453.739ZM644.751 -501.367L595.751 -501.367V-547.995L644.751 -547.995V-501.367ZM644.751 -548.995L595.751 -548.995V-595.623L644.751 -595.623V-548.995ZM645.751 -548.995V-595.623L694.751 -595.623L694.751 -548.995L645.751 -548.995ZM695.751 -548.995L695.751 -595.623L744.751 -595.623V-548.995L695.751 -548.995ZM745.751 -548.995V-595.623L794.751 -595.623V-548.995L745.751 -548.995ZM795.751 -548.995V-595.623L844.751 -595.623V-548.995L795.751 -548.995ZM845.751 -548.995V-595.623L894.751 -595.623V-548.995L845.751 -548.995ZM895.751 -548.995V-595.623L944.751 -595.623V-548.995L895.751 -548.995ZM945.751 -548.995V-595.623L994.751 -595.623V-548.995L945.751 -548.995ZM995.751 -548.995V-595.623L1044.75 -595.623V-548.995L995.751 -548.995ZM1045.75 -548.995V-595.623L1094.75 -595.623V-548.995L1045.75 -548.995ZM1095.75 -548.995V-595.623L1144.75 -595.623V-548.995L1095.75 -548.995ZM1095.75 -547.995L1144.75 -547.995V-501.367L1095.75 -501.367V-547.995ZM1095.75 -500.367L1144.75 -500.367V-453.739H1095.75V-500.367ZM1095.75 -452.739H1144.75V-406.111H1095.75V-452.739ZM1095.75 -405.111H1144.75V-358.483H1095.75V-405.111ZM1095.75 -357.483H1144.75V-310.855L1095.75 -310.855V-357.483ZM1095.75 -309.855L1144.75 -309.855V-263.227L1095.75 -263.227V-309.855ZM1095.75 -262.227L1144.75 -262.227V-215.6L1095.75 -215.6V-262.227ZM1095.75 -214.6L1144.75 -214.6V-167.972L1095.75 -167.972V-214.6ZM1095.75 -166.972L1144.75 -166.972V-120.344L1095.75 -120.344V-166.972ZM1095.75 -119.344L1144.75 -119.344V-72.7159H1095.75V-119.344ZM1095.75 -71.7159H1144.75V-25.088H1095.75V-71.7159ZM1094.75 -71.7159V-25.088H1045.75V-71.7159H1094.75ZM1044.75 -71.7159V-25.088L995.751 -25.0881V-71.7159L1044.75 -71.7159ZM994.751 -71.7159V-25.0881H945.751V-71.7159H994.751ZM944.751 -71.7159V-25.0881L895.751 -25.0881V-71.716L944.751 -71.7159ZM894.751 -71.716V-25.0881H845.751V-71.716H894.751ZM844.751 -71.716V-25.0881H795.751V-71.716H844.751ZM794.751 -71.716V-25.0881H745.751V-71.716H794.751ZM744.751 -71.716V-25.0881L695.751 -25.0882V-71.7161L744.751 -71.716ZM694.751 -71.7161V-25.0882H645.751V-71.7161H694.751ZM694.751 -72.7161H645.751V-119.344L694.751 -119.344V-72.7161ZM694.751 -120.344L645.751 -120.344L645.751 -166.972L694.751 -166.972V-120.344ZM694.751 -167.972L645.751 -167.972V-214.6L694.751 -214.6V-167.972ZM694.751 -215.6L645.751 -215.6V-262.228L694.751 -262.228L694.751 -215.6ZM694.751 -263.228L645.751 -263.228V-309.856L694.751 -309.856V-263.228ZM694.751 -310.856L645.751 -310.856V-357.483L694.751 -357.483V-310.856ZM694.751 -358.483L645.751 -358.483V-405.111L694.751 -405.111V-358.483ZM694.751 -406.111L645.751 -406.111V-452.739L694.751 -452.739V-406.111ZM694.751 -453.739L645.751 -453.739L645.751 -500.367L694.751 -500.367V-453.739ZM694.751 -501.367L645.751 -501.367V-547.995L694.751 -547.995V-501.367ZM695.751 -501.367V-547.995L744.751 -547.995V-501.367L695.751 -501.367ZM745.751 -501.367V-547.995L794.751 -547.995V-501.367L745.751 -501.367ZM795.751 -501.367V-547.995L844.751 -547.995V-501.367L795.751 -501.367ZM845.751 -501.367V-547.995L894.751 -547.995V-501.367L845.751 -501.367ZM895.751 -501.367V-547.995L944.751 -547.995V-501.367L895.751 -501.367ZM945.751 -501.367V-547.995L994.751 -547.995V-501.367L945.751 -501.367ZM995.751 -501.367V-547.995L1044.75 -547.995V-501.367L995.751 -501.367ZM1045.75 -501.367V-547.995L1094.75 -547.995V-501.367L1045.75 -501.367ZM1045.75 -500.367L1094.75 -500.367V-453.739L1045.75 -453.739V-500.367ZM1045.75 -452.739L1094.75 -452.739V-406.111L1045.75 -406.111V-452.739ZM1045.75 -405.111L1094.75 -405.111V-358.483L1045.75 -358.483V-405.111ZM1045.75 -357.483L1094.75 -357.483V-310.855H1045.75V-357.483ZM1045.75 -309.855H1094.75V-263.227H1045.75V-309.855ZM1045.75 -262.227H1094.75V-215.6H1045.75V-262.227ZM1045.75 -214.6H1094.75V-167.972H1045.75V-214.6ZM1045.75 -166.972H1094.75V-120.344H1045.75V-166.972ZM1045.75 -119.344H1094.75V-72.7159H1045.75V-119.344ZM1044.75 -119.344V-72.7159L995.751 -72.7159V-119.344H1044.75ZM994.751 -119.344V-72.7159H945.751V-119.344L994.751 -119.344ZM944.751 -119.344V-72.7159L895.751 -72.716V-119.344H944.751ZM894.751 -119.344V-72.716H845.751V-119.344H894.751ZM844.751 -119.344V-72.716H795.751V-119.344L844.751 -119.344ZM794.751 -119.344V-72.716H745.751V-119.344L794.751 -119.344ZM744.751 -119.344V-72.716L695.751 -72.7161V-119.344H744.751ZM744.751 -120.344H695.751V-166.972H744.751V-120.344ZM744.751 -167.972H695.751V-214.6H744.751V-167.972ZM744.751 -215.6H695.751L695.751 -262.228H744.751L744.751 -215.6ZM744.751 -263.228H695.751V-309.856H744.751V-263.228ZM744.751 -310.856H695.751V-357.483L744.751 -357.483V-310.856ZM744.751 -358.483L695.751 -358.483V-405.111L744.751 -405.111V-358.483ZM744.751 -406.111L695.751 -406.111V-452.739L744.751 -452.739V-406.111ZM744.751 -453.739L695.751 -453.739V-500.367L744.751 -500.367V-453.739ZM745.751 -453.739V-500.367L794.751 -500.367V-453.739L745.751 -453.739ZM795.751 -453.739V-500.367L844.751 -500.367V-453.739H795.751ZM845.751 -453.739V-500.367L894.751 -500.367V-453.739L845.751 -453.739ZM895.751 -453.739V-500.367L944.751 -500.367V-453.739L895.751 -453.739ZM945.751 -453.739V-500.367L994.751 -500.367V-453.739H945.751ZM995.751 -453.739V-500.367L1044.75 -500.367V-453.739L995.751 -453.739ZM995.751 -452.739L1044.75 -452.739V-406.111L995.751 -406.111V-452.739ZM995.751 -405.111L1044.75 -405.111V-358.483L995.751 -358.483V-405.111ZM995.751 -357.483L1044.75 -357.483V-310.855H995.751V-357.483ZM995.751 -309.855H1044.75V-263.227H995.751V-309.855ZM995.751 -262.227H1044.75V-215.6H995.751L995.751 -262.227ZM995.751 -214.6H1044.75V-167.972H995.751V-214.6ZM995.751 -166.972H1044.75V-120.344H995.751V-166.972ZM994.751 -166.972V-120.344L945.751 -120.344V-166.972L994.751 -166.972ZM944.751 -166.972V-120.344H895.751V-166.972H944.751ZM894.751 -166.972V-120.344H845.751V-166.972H894.751ZM844.751 -166.972V-120.344L795.751 -120.344V-166.972L844.751 -166.972ZM794.751 -166.972V-120.344L745.751 -120.344V-166.972L794.751 -166.972ZM794.751 -167.972L745.751 -167.972V-214.6L794.751 -214.6V-167.972ZM794.751 -215.6L745.751 -215.6L745.751 -262.228L794.751 -262.228L794.751 -215.6ZM794.751 -263.228L745.751 -263.228V-309.856L794.751 -309.855V-263.228ZM794.751 -310.855L745.751 -310.856V-357.483L794.751 -357.483V-310.855ZM794.751 -358.483L745.751 -358.483V-405.111L794.751 -405.111V-358.483ZM794.751 -406.111L745.751 -406.111V-452.739L794.751 -452.739L794.751 -406.111ZM795.751 -406.111L795.751 -452.739H844.751V-406.111H795.751ZM845.751 -406.111V-452.739L894.751 -452.739V-406.111L845.751 -406.111ZM895.751 -406.111V-452.739L944.751 -452.739V-406.111L895.751 -406.111ZM945.751 -406.111V-452.739H994.751V-406.111H945.751ZM945.751 -405.111H994.751V-358.483H945.751V-405.111ZM945.751 -357.483H994.751V-310.855L945.751 -310.855V-357.483ZM945.751 -309.855L994.751 -309.855V-263.227L945.751 -263.228V-309.855ZM945.751 -262.228L994.751 -262.227L994.751 -215.6L945.751 -215.6V-262.228ZM945.751 -214.6L994.751 -214.6V-167.972L945.751 -167.972V-214.6ZM944.751 -214.6V-167.972H895.751V-214.6H944.751ZM894.751 -214.6V-167.972H845.751V-214.6H894.751ZM844.751 -214.6V-167.972L795.751 -167.972V-214.6L844.751 -214.6ZM844.751 -215.6L795.751 -215.6L795.751 -262.228L844.751 -262.228L844.751 -215.6ZM844.751 -263.228L795.751 -263.228V-309.855L844.751 -309.855V-263.228ZM844.751 -310.855L795.751 -310.855V-357.483H844.751V-310.855ZM844.751 -358.483H795.751V-405.111H844.751V-358.483ZM845.751 -358.483V-405.111L894.751 -405.111V-358.483L845.751 -358.483ZM895.751 -358.483V-405.111L944.751 -405.111V-358.483L895.751 -358.483ZM895.751 -357.483L944.751 -357.483V-310.855H895.751V-357.483ZM895.751 -309.855H944.751V-263.228H895.751V-309.855ZM895.751 -262.228H944.751V-215.6H895.751V-262.228ZM894.751 -262.228V-215.6H845.751L845.751 -262.228H894.751ZM894.751 -263.228H845.751V-309.855H894.751V-263.228ZM894.751 -310.855H845.751V-357.483L894.751 -357.483V-310.855ZM644.751 589.785H595.751V543.157H644.751V589.785ZM644.751 542.157H595.751V495.529H644.751V542.157ZM644.751 494.529H595.751V447.901H644.751V494.529ZM644.751 446.901H595.751V400.273H644.751V446.901ZM644.751 399.273H595.751V352.645H644.751V399.273ZM644.751 351.645H595.751V305.017H644.751L644.751 351.645ZM644.751 304.017H595.751L595.751 257.389H644.751V304.017ZM644.751 256.389H595.751V209.761H644.751V256.389ZM644.751 208.761H595.751V162.133H644.751V208.761ZM644.751 161.133H595.751V114.505H644.751V161.133ZM644.751 113.505H595.751V66.8776H644.751V113.505ZM644.751 65.8776H595.751V19.2498H644.751L644.751 21.7496L644.751 65.8776ZM645.751 65.8776V19.2498H694.751L694.751 21.7496L694.751 65.8776L645.751 65.8776ZM695.751 65.8776V19.2498H744.751L744.751 21.7496L744.751 65.8776H695.751ZM745.751 65.8776V19.2498H794.751L794.751 21.7496L794.751 65.8776H745.751ZM795.751 65.8776L795.751 19.2498H844.751L844.751 21.7496L844.751 65.8776H795.751ZM1095.75 66.8777H1144.75V113.506L1095.75 113.506V66.8777ZM1095.75 114.506L1144.75 114.506V161.133H1095.75V114.506ZM1095.75 162.133H1144.75V208.761L1095.75 208.761V162.133ZM1095.75 209.761L1144.75 209.761V256.389L1095.75 256.389V209.761ZM1095.75 257.389L1144.75 257.389V304.017L1095.75 304.017V257.389ZM1095.75 305.017L1144.75 305.017V351.645H1095.75V305.017ZM1095.75 352.645H1144.75V399.273H1095.75V352.645ZM1095.75 400.273H1144.75V446.901H1095.75V400.273ZM1095.75 447.901H1144.75V494.529H1095.75V447.901ZM1095.75 495.529H1144.75V542.157H1095.75V495.529ZM1095.75 543.157H1144.75V589.785H1095.75V543.157ZM1094.75 543.157V589.785H1045.75V543.157H1094.75ZM1044.75 543.157V589.785L995.751 589.785V543.157H1044.75ZM994.751 543.157V589.785H945.751V543.157H994.751ZM944.751 543.157V589.785H895.751V543.157H944.751ZM894.751 543.157V589.785H845.751V543.157H894.751ZM844.751 543.157V589.785H795.751V543.157H844.751ZM794.751 543.157V589.785H745.751V543.157H794.751ZM744.751 543.157V589.785H695.751L695.751 543.157L744.751 543.157ZM694.751 543.157L694.751 589.785H645.751V543.157H694.751ZM694.751 542.157H645.751V495.529H694.751V542.157ZM694.751 494.529H645.751V447.901H694.751V494.529ZM694.751 446.901H645.751V400.273H694.751V446.901ZM694.751 399.273H645.751V352.645H694.751V399.273ZM694.751 351.645H645.751L645.751 305.017L694.751 305.017V351.645ZM694.751 304.017L645.751 304.017V257.389H694.751L694.751 304.017ZM694.751 256.389H645.751V209.761H694.751V256.389ZM694.751 208.761H645.751V162.133H694.751V208.761ZM694.751 161.133H645.751V114.505H694.751V161.133ZM694.751 113.505H645.751V66.8776L694.751 66.8776V113.505ZM695.751 113.505V66.8776H744.751V113.505L695.751 113.505ZM745.751 113.505V66.8776H794.751V113.505H745.751ZM795.751 113.505V66.8776H844.751V113.505H795.751ZM845.751 113.505V66.8776L894.751 66.8777V113.505H845.751ZM895.751 113.505V66.8777H944.751V113.506L895.751 113.505ZM945.751 113.506V66.8777H994.751V113.506H945.751ZM995.751 113.506V66.8777H1044.75V113.506H995.751ZM1045.75 113.506V66.8777L1094.75 66.8777V113.506H1045.75ZM1045.75 114.506H1094.75V161.133H1045.75V114.506ZM1045.75 162.133H1094.75V208.761H1045.75V162.133ZM1045.75 209.761H1094.75V256.389H1045.75V209.761ZM1045.75 257.389H1094.75V304.017H1045.75V257.389ZM1045.75 305.017H1094.75V351.645H1045.75V305.017ZM1045.75 352.645H1094.75V399.273H1045.75V352.645ZM1045.75 400.273H1094.75V446.901H1045.75V400.273ZM1045.75 447.901H1094.75V494.529H1045.75V447.901ZM1045.75 495.529H1094.75V542.157H1045.75V495.529ZM1044.75 495.529V542.157H995.751V495.529H1044.75ZM994.751 495.529V542.157H945.751V495.529H994.751ZM944.751 495.529V542.157H895.751V495.529L944.751 495.529ZM894.751 495.529V542.157H845.751V495.529H894.751ZM844.751 495.529V542.157H795.751L795.751 495.529H844.751ZM794.751 495.529L794.751 542.157H745.751L745.751 495.529H794.751ZM744.751 495.529L744.751 542.157L695.751 542.157V495.529H744.751ZM744.751 494.529H695.751V447.901H744.751V494.529ZM744.751 446.901H695.751V400.273H744.751V446.901ZM744.751 399.273H695.751V352.645H744.751V399.273ZM744.751 351.645H695.751V305.017H744.751V351.645ZM744.751 304.017H695.751L695.751 257.389L744.751 257.389V304.017ZM744.751 256.389L695.751 256.389V209.761L744.751 209.761V256.389ZM744.751 208.761L695.751 208.761V162.133H744.751L744.751 208.761ZM744.751 161.133H695.751V114.505L744.751 114.505V161.133ZM745.751 161.133V114.505H794.751V161.133L745.751 161.133ZM795.751 161.133V114.505H844.751V161.133H795.751ZM845.751 161.133V114.505H894.751V161.133H845.751ZM895.751 161.133V114.505L944.751 114.506V161.133L895.751 161.133ZM945.751 161.133V114.506H994.751V161.133H945.751ZM995.751 161.133V114.506H1044.75V161.133H995.751ZM995.751 162.133H1044.75V208.761H995.751V162.133ZM995.751 209.761H1044.75V256.389H995.751V209.761ZM995.751 257.389H1044.75V304.017H995.751V257.389ZM995.751 305.017H1044.75V351.645H995.751V305.017ZM995.751 352.645H1044.75V399.273H995.751V352.645ZM995.751 400.273H1044.75V446.901H995.751V400.273ZM995.751 447.901H1044.75V494.529H995.751V447.901ZM994.751 447.901V494.529H945.751V447.901L994.751 447.901ZM944.751 447.901V494.529L895.751 494.529V447.901H944.751ZM894.751 447.901V494.529H845.751V447.901H894.751ZM844.751 447.901V494.529H795.751V447.901H844.751ZM794.751 447.901V494.529H745.751V447.901H794.751ZM794.751 446.901H745.751V400.273H794.751V446.901ZM794.751 399.273H745.751V352.645H794.751V399.273ZM794.751 351.645H745.751V305.017H794.751V351.645ZM794.751 304.017H745.751V257.389H794.751L794.751 304.017ZM794.751 256.389H745.751V209.761H794.751V256.389ZM794.751 208.761H745.751L745.751 162.133L794.751 162.133V208.761ZM795.751 208.761V162.133H844.751V208.761H795.751ZM845.751 208.761V162.133H894.751V208.761H845.751ZM895.751 208.761V162.133L944.751 162.133V208.761L895.751 208.761ZM945.751 208.761V162.133H994.751V208.761H945.751ZM945.751 209.761H994.751V256.389H945.751V209.761ZM945.751 257.389H994.751V304.017H945.751V257.389ZM945.751 305.017H994.751V351.645L945.751 351.645V305.017ZM945.751 352.645L994.751 352.645V399.273L945.751 399.273L945.751 352.645ZM945.751 400.273L994.751 400.273V446.901L945.751 446.901V400.273ZM944.751 400.273V446.901H895.751V400.273H944.751ZM894.751 400.273V446.901H845.751V400.273H894.751ZM844.751 400.273V446.901H795.751V400.273L844.751 400.273ZM844.751 399.273L795.751 399.273V352.645L844.751 352.645V399.273ZM844.751 351.645L795.751 351.645V305.017H844.751V351.645ZM844.751 304.017H795.751L795.751 257.389H844.751V304.017ZM844.751 256.389H795.751V209.761H844.751V256.389ZM845.751 256.389V209.761H894.751V256.389H845.751ZM895.751 256.389V209.761L944.751 209.761V256.389L895.751 256.389ZM895.751 257.389L944.751 257.389V304.017L895.751 304.017V257.389ZM895.751 305.017L944.751 305.017V351.645H895.751V305.017ZM895.751 352.645H944.751L944.751 399.273H895.751L895.751 352.645ZM894.751 352.645L894.751 399.273H845.751V352.645H894.751ZM894.751 351.645H845.751V305.017H894.751V351.645ZM894.751 304.017H845.751V257.389H894.751V304.017ZM50.251 589.785H1.25102L1.25102 543.157H50.251L50.251 589.785ZM50.251 542.157H1.25102L1.25103 495.529H50.251L50.251 542.157ZM50.251 494.529H1.25103L1.25104 447.901H50.251L50.251 494.529ZM50.251 446.901H1.25104L1.25105 400.273H50.2511L50.251 446.901ZM50.2511 399.273H1.25105L1.25106 352.645H50.2511L50.2511 399.273ZM50.2511 351.645H1.25106L1.25107 305.017H50.2511L50.2511 351.645ZM50.2511 304.017H1.25107L1.25108 257.389H50.2511L50.2511 304.017ZM50.2511 256.389H1.25108L1.25109 209.761H50.2511L50.2511 256.389ZM50.2511 208.761H1.25109L1.2511 162.133H50.2511L50.2511 208.761ZM50.2511 161.133H1.2511L1.25111 114.505H50.2511L50.2511 161.133ZM50.2511 113.505H1.25111L1.25112 66.8776H50.2511L50.2511 113.505ZM50.2511 65.8776H1.25112L1.25112 19.2498H50.2511L50.2511 65.8776ZM51.2511 65.8776L51.2511 19.2498H100.251L100.251 65.8776L51.2511 65.8776ZM101.251 65.8776L101.251 19.2498H150.251V65.8776H101.251ZM151.251 65.8776V19.2498H200.251L200.251 65.8776H151.251ZM201.251 65.8776L201.251 19.2498H250.251V65.8776H201.251ZM251.251 65.8776V19.2498H300.251V65.8777L251.251 65.8776ZM301.251 65.8777V19.2498H350.251V65.8777H301.251ZM351.251 65.8777V19.2498H400.251V65.8777H351.251ZM401.251 65.8777V19.2498L450.251 19.2498V65.8777H401.251ZM451.251 65.8777V19.2498H500.251V65.8777L451.251 65.8777ZM501.251 65.8777V19.2498H550.251V65.8777H501.251ZM501.251 66.8777H550.251V113.506L501.251 113.506V66.8777ZM501.251 114.506L550.251 114.506V161.133H501.251V114.506ZM501.251 162.133H550.251V208.761L501.251 208.761V162.133ZM501.251 209.761L550.251 209.761V256.389L501.251 256.389L501.251 209.761ZM501.251 257.389L550.251 257.389V304.017L501.251 304.017V257.389ZM501.251 305.017L550.251 305.017V351.645H501.251V305.017ZM501.251 352.645H550.251V399.273H501.251V352.645ZM501.251 400.273H550.251L550.251 446.901H501.251V400.273ZM501.251 447.901H550.251V494.529H501.251V447.901ZM501.251 495.529H550.251V542.157H501.251V495.529ZM501.251 543.157H550.251V589.785H501.251L501.251 543.157ZM500.251 543.157L500.251 589.785H451.251L451.251 543.157H500.251ZM450.251 543.157L450.251 589.785L401.251 589.785L401.251 543.157H450.251ZM400.251 543.157L400.251 589.785H351.251L351.251 543.157H400.251ZM350.251 543.157L350.251 589.785H301.251L301.251 543.157H350.251ZM300.251 543.157L300.251 589.785H251.251V543.157H300.251ZM250.251 543.157V589.785H201.251L201.251 543.157H250.251ZM200.251 543.157L200.251 589.785H151.251V543.157H200.251ZM150.251 543.157V589.785H101.251L101.251 543.157L150.251 543.157ZM100.251 543.157L100.251 589.785H51.251L51.251 543.157H100.251ZM100.251 542.157H51.251L51.251 495.529H100.251L100.251 542.157ZM100.251 494.529H51.251L51.251 447.901H100.251L100.251 494.529ZM100.251 446.901H51.251L51.2511 400.273H100.251L100.251 446.901ZM100.251 399.273H51.2511L51.2511 352.645H100.251L100.251 399.273ZM100.251 351.645H51.2511L51.2511 305.017L100.251 305.017V351.645ZM100.251 304.017L51.2511 304.017L51.2511 257.389H100.251L100.251 304.017ZM100.251 256.389H51.2511L51.2511 209.761H100.251V256.389ZM100.251 208.761H51.2511L51.2511 162.133H100.251L100.251 208.761ZM100.251 161.133H51.2511L51.2511 114.505H100.251L100.251 161.133ZM100.251 113.505H51.2511L51.2511 66.8776L100.251 66.8776L100.251 113.505ZM101.251 113.505L101.251 66.8776H150.251L150.251 113.505L101.251 113.505ZM151.251 113.505L151.251 66.8776H200.251V113.505H151.251ZM201.251 113.505V66.8776H250.251V113.505H201.251ZM251.251 113.505V66.8776L300.251 66.8777V113.505H251.251ZM301.251 113.505V66.8777H350.251V113.506L301.251 113.505ZM351.251 113.506V66.8777H400.251V113.506H351.251ZM401.251 113.506V66.8777H450.251V113.506H401.251ZM451.251 113.506V66.8777L500.251 66.8777V113.506H451.251ZM451.251 114.506H500.251V161.133H451.251V114.506ZM451.251 162.133H500.251V208.761H451.251V162.133ZM451.251 209.761H500.251L500.251 256.389H451.251L451.251 209.761ZM451.251 257.389H500.251V304.017H451.251V257.389ZM451.251 305.017H500.251V351.645H451.251V305.017ZM451.251 352.645H500.251V399.273H451.251V352.645ZM451.251 400.273H500.251V446.901H451.251V400.273ZM451.251 447.901H500.251V494.529H451.251V447.901ZM451.251 495.529H500.251V542.157H451.251V495.529ZM450.251 495.529V542.157H401.251V495.529H450.251ZM400.251 495.529V542.157H351.251V495.529H400.251ZM350.251 495.529V542.157H301.251V495.529L350.251 495.529ZM300.251 495.529V542.157H251.251V495.529H300.251ZM250.251 495.529V542.157H201.251L201.251 495.529H250.251ZM200.251 495.529L200.251 542.157H151.251L151.251 495.529H200.251ZM150.251 495.529L150.251 542.157L101.251 542.157L101.251 495.529H150.251ZM150.251 494.529H101.251L101.251 447.901H150.251L150.251 494.529ZM150.251 446.901H101.251L101.251 400.273H150.251V446.901ZM150.251 399.273H101.251L101.251 352.645H150.251L150.251 399.273ZM150.251 351.645H101.251V305.017H150.251L150.251 351.645ZM150.251 304.017H101.251L101.251 257.389L150.251 257.389V304.017ZM150.251 256.389L101.251 256.389V209.761L150.251 209.761L150.251 256.389ZM150.251 208.761L101.251 208.761L101.251 162.133H150.251V208.761ZM150.251 161.133H101.251L101.251 114.505L150.251 114.505L150.251 161.133ZM151.251 161.133L151.251 114.505H200.251L200.251 161.133L151.251 161.133ZM201.251 161.133L201.251 114.505H250.251L250.251 161.133H201.251ZM251.251 161.133L251.251 114.505H300.251V161.133H251.251ZM301.251 161.133V114.505L350.251 114.506V161.133L301.251 161.133ZM351.251 161.133V114.506H400.251V161.133H351.251ZM401.251 161.133V114.506H450.251V161.133H401.251ZM401.251 162.133H450.251V208.761H401.251V162.133ZM401.251 209.761H450.251L450.251 256.389H401.251L401.251 209.761ZM401.251 257.389H450.251V304.017H401.251V257.389ZM401.251 305.017H450.251V351.645H401.251V305.017ZM401.251 352.645H450.251V399.273H401.251V352.645ZM401.251 400.273H450.251V446.901H401.251V400.273ZM401.251 447.901H450.251V494.529H401.251V447.901ZM400.251 447.901V494.529H351.251V447.901L400.251 447.901ZM350.251 447.901V494.529L301.251 494.529V447.901H350.251ZM300.251 447.901V494.529H251.251L251.251 447.901H300.251ZM250.251 447.901L250.251 494.529H201.251L201.251 447.901H250.251ZM200.251 447.901L200.251 494.529H151.251L151.251 447.901H200.251ZM200.251 446.901H151.251V400.273H200.251L200.251 446.901ZM200.251 399.273H151.251L151.251 352.645H200.251L200.251 399.273ZM200.251 351.645H151.251L151.251 305.017H200.251L200.251 351.645ZM200.251 304.017H151.251V257.389H200.251L200.251 304.017ZM200.251 256.389H151.251L151.251 209.761H200.251V256.389ZM200.251 208.761H151.251V162.133L200.251 162.133L200.251 208.761ZM201.251 208.761L201.251 162.133H250.251V208.761H201.251ZM251.251 208.761V162.133H300.251V208.761H251.251ZM301.251 208.761V162.133L350.251 162.133V208.761L301.251 208.761ZM351.251 208.761V162.133H400.251V208.761H351.251ZM351.251 209.761H400.251L400.251 256.389H351.251L351.251 209.761ZM351.251 257.389H400.251V304.017H351.251V257.389ZM351.251 305.017H400.251V351.645L351.251 351.645V305.017ZM351.251 352.645L400.251 352.645V399.273L351.251 399.273V352.645ZM351.251 400.273L400.251 400.273V446.901L351.251 446.901V400.273ZM350.251 400.273V446.901H301.251V400.273H350.251ZM300.251 400.273V446.901H251.251V400.273H300.251ZM250.251 400.273V446.901H201.251L201.251 400.273L250.251 400.273ZM250.251 399.273L201.251 399.273L201.251 352.645L250.251 352.645V399.273ZM250.251 351.645L201.251 351.645L201.251 305.017H250.251L250.251 351.645ZM250.251 304.017H201.251L201.251 257.389H250.251V304.017ZM250.251 256.389H201.251V209.761H250.251V256.389ZM251.251 256.389V209.761H300.251L300.251 256.389H251.251ZM301.251 256.389L301.251 209.761L350.251 209.761L350.251 256.389L301.251 256.389ZM301.251 257.389L350.251 257.389V304.017L301.251 304.017V257.389ZM301.251 305.017L350.251 305.017V351.645H301.251V305.017ZM301.251 352.645H350.251V399.273H301.251V352.645ZM300.251 352.645V399.273H251.251V352.645H300.251ZM300.251 351.645H251.251L251.251 305.017H300.251V351.645ZM300.251 304.017H251.251V257.389H300.251V304.017Z" fill="url(#paint0_linear_1556_7013)" fill-opacity="0.15"/>
<defs>
<linearGradient id="paint0_linear_1556_7013" x1="1319.92" y1="-454.769" x2="-117.203" y2="613.621" gradientUnits="userSpaceOnUse">
<stop stop-color="#EF7065" stop-opacity="0"/>
<stop offset="0.487675" stop-color="#EF7065"/>
<stop offset="1" stop-color="#EF7065" stop-opacity="0"/>
</linearGradient>
</defs>
</svg>
