<svg width="158" height="43" viewBox="0 0 158 43" fill="none" xmlns="http://www.w3.org/2000/svg">
<mask id="mask0_1556_6337" style="mask-type:alpha" maskUnits="userSpaceOnUse" x="0" y="0" width="158" height="43">
<path d="M8.32651 42.0356C8.33769 41.8688 8.34886 41.7017 8.36241 41.5013C8.53514 41.4826 8.69939 41.4551 8.86433 41.449C10.3298 41.3947 11.7952 41.3471 13.2607 41.2914C14.974 41.2265 16.6867 41.1552 18.4001 41.0866C20.0681 41.0197 21.7367 40.967 23.4037 40.8814C24.6981 40.8152 25.9942 40.7422 27.2832 40.6114C29.8335 40.3526 32.2381 39.588 34.513 38.4097C36.3713 37.4471 38.0589 36.2518 39.4908 34.7148C40.9797 33.117 42.0952 31.2987 42.5603 29.1449C43.1577 26.3777 42.5372 23.9185 40.5248 21.8791C39.418 20.7575 38.0498 20.0843 36.5301 19.7161C36.1159 19.6156 35.6888 19.568 35.2679 19.4953C35.192 19.4821 35.1168 19.4651 34.9685 19.4349C35.1266 19.3778 35.2161 19.3425 35.3068 19.3129C37.1827 18.7005 38.9537 17.8714 40.5699 16.7298C42.1179 15.636 43.4472 14.3341 44.385 12.6633C45.0079 11.5543 45.3567 10.3593 45.523 9.10492C45.6442 8.19019 45.6446 7.27853 45.417 6.37875C45.0231 4.82104 44.0626 3.70116 42.7062 2.89309C41.9256 2.42775 41.0823 2.11525 40.2119 1.86899C40.1184 1.8425 40.0249 1.81635 39.884 1.77626C40.5235 1.77626 41.1087 1.74366 41.6892 1.78442C42.4414 1.83706 43.1939 1.91859 43.938 2.03951C45.5616 2.30309 47.1239 2.75756 48.5186 3.67262C49.9966 4.64203 50.912 5.98406 51.146 7.75033C51.2839 8.79072 51.1711 9.82195 50.9361 10.8444C50.4365 13.0155 49.2166 14.725 47.5639 16.1557C45.6117 17.8459 43.3487 18.9563 40.8963 19.708C40.7402 19.7559 40.5864 19.8109 40.4442 19.9063C40.8628 19.9827 41.2872 20.0361 41.699 20.139C45.0068 20.9664 47.1066 23.0462 47.974 26.3372C48.4569 28.1704 48.2006 29.9635 47.4958 31.7101C46.5004 34.1774 44.9056 36.172 42.774 37.7368C40.2816 39.5666 37.4903 40.7388 34.4788 41.3797C33.5897 41.5689 32.6767 41.6583 31.7704 41.7513C29.782 41.9558 27.7862 41.9854 25.7883 41.9748C23.4413 41.9626 21.0943 41.9765 18.7472 41.9806C17.0999 41.9833 15.4523 41.9877 13.8049 41.9945C13.6715 41.9952 13.5381 42.0217 13.4046 42.036H8.32617L8.32651 42.0356Z" fill="white"/>
<path d="M27.4944 1.93135C27.1056 1.73094 27.0968 1.73196 26.8621 2.05634C23.1058 7.24306 19.3495 12.4298 15.5936 17.6168C11.7713 22.8952 7.94936 28.1737 4.12706 33.4521C4.08743 33.5071 4.04815 33.5625 4.00615 33.6155C3.90951 33.7366 3.75835 33.7501 3.55266 33.6559C7.78544 23.1979 12.0189 12.7382 16.2537 2.27577C15.8937 2.16368 15.892 2.16266 15.7457 2.48059C14.2393 5.75226 12.7332 9.02427 11.2274 12.2963C8.05096 19.1997 4.87519 26.1031 1.69875 33.0061C1.64219 33.1291 1.58258 33.2503 1.51688 33.3882H0.990237C0.98448 33.1369 9.97464 0.49965 10.1826 0.0139263C10.2734 0.00951067 10.3723 0 10.4715 0C13.3943 0.00373634 16.317 0.004076 19.2398 0.0139263C21.869 0.0227577 24.4981 0.048912 27.1272 0.052988C28.2097 0.0546864 29.2934 -0.019361 30.3748 0.00951067C32.2731 0.060121 34.15 0.28566 35.9477 0.94835C37.0721 1.36274 38.098 1.93916 38.9156 2.83928C39.7186 3.72343 40.1795 4.76994 40.2618 5.95368C40.463 8.84017 39.5269 11.3309 37.5602 13.4369C36.2248 14.8669 34.632 15.9409 32.878 16.785C31.9012 17.2551 30.8903 17.6362 29.8505 17.9419C29.7306 17.9772 29.5776 17.9704 29.4888 18.1678C29.6233 18.1936 29.7364 18.2245 29.8519 18.2357C31.8724 18.4341 33.6938 19.1192 35.1996 20.5104C36.8645 22.0488 37.6912 23.9679 37.654 26.2454C37.6238 28.0769 36.9837 29.7117 36.0114 31.231C35.0553 32.7245 33.8185 33.9548 32.4025 35.0071C30.0836 36.7306 27.5093 37.9207 24.7193 38.6487C23.6707 38.9221 22.6029 39.0977 21.5232 39.1714C19.9036 39.2818 18.2824 39.3671 16.6615 39.4523C15.2085 39.5291 13.7546 39.5889 12.3017 39.6612C11.1753 39.7173 10.0495 39.7821 8.92305 39.8402C8.76726 39.8484 8.61045 39.8412 8.4252 39.8412C8.41301 39.6833 8.40217 39.541 8.38761 39.3518C11.0533 38.5634 13.7235 37.8046 16.3895 37.0312C19.0603 36.2567 21.7331 35.4891 24.4046 34.7163C27.0747 33.9443 29.7442 33.1698 32.4289 32.3923V31.9627C29.7049 32.6026 27.0111 33.2653 24.3132 33.9113C21.5984 34.5614 18.8849 35.2167 16.1711 35.8712C13.4708 36.5223 10.7709 37.1759 8.05096 37.8328C7.98898 37.6697 7.93784 37.5349 7.87112 37.3583C16.4044 32.6111 24.935 27.8659 33.4747 23.115C33.4473 23.0213 33.4334 22.9567 33.4094 22.8966C33.3846 22.8351 33.3497 22.7777 33.2966 22.6745C31.0982 23.7842 28.9205 24.9112 26.7374 26.0273C24.5587 27.1411 22.3817 28.2579 20.204 29.3734C18.0162 30.4939 15.8283 31.6142 13.6405 32.7344C11.4648 33.8485 9.2895 34.9626 7.09928 36.0845C6.99463 35.9429 6.90895 35.827 6.80666 35.6881C16.9605 26.0973 27.1049 16.516 37.2689 6.91596C37.1673 6.79164 37.085 6.69144 36.9702 6.55116C33.4656 9.68662 29.9911 12.8078 26.5139 15.9253C23.033 19.0461 19.5527 22.168 16.0722 25.2892C12.5926 28.4094 9.11271 31.5296 5.61012 34.6705C5.4926 34.5808 5.38998 34.5027 5.2684 34.41C12.6861 23.5705 20.0889 12.7531 27.4944 1.93135Z" fill="white"/>
<path d="M110.8 27.2701H111.193C112.603 27.2701 114.013 27.2694 115.423 27.2701C116.044 27.2705 116.668 27.2847 117.264 27.4712C117.57 27.567 117.876 27.7086 118.138 27.892C118.579 28.2001 118.783 28.6709 118.832 29.1974C118.906 29.9987 118.792 30.7772 118.468 31.5153C118.023 32.5265 117.273 33.1949 116.2 33.4847C116.105 33.5101 116.014 33.5461 115.842 33.6042C116.012 33.6535 116.108 33.6742 116.199 33.7085C116.46 33.8077 116.738 33.8817 116.977 34.021C117.474 34.3097 117.708 34.7856 117.748 35.3423C117.823 36.3905 117.624 37.3929 117.129 38.3212C116.568 39.3741 115.658 39.9889 114.517 40.2457C113.993 40.3636 113.448 40.4278 112.911 40.4363C111.377 40.4611 109.843 40.4455 108.309 40.4444C108.231 40.4444 108.154 40.4332 108.037 40.4241C108.045 40.316 108.04 40.2189 108.06 40.1265C108.516 37.9737 108.975 35.8216 109.432 33.6691C109.849 31.7041 110.263 29.7385 110.679 27.7732C110.714 27.6098 110.757 27.4484 110.8 27.2698L110.8 27.2701ZM111.122 38.4441C111.842 38.4441 112.507 38.4856 113.166 38.4333C113.947 38.3714 114.499 37.9316 114.806 37.2033C114.978 36.7947 115.079 36.3688 115.081 35.9224C115.085 35.181 114.724 34.756 113.977 34.6976C113.383 34.6511 112.785 34.6541 112.19 34.6463C111.937 34.6429 111.923 34.664 111.865 34.934C111.704 35.683 111.546 36.4326 111.387 37.1819C111.301 37.5882 111.217 37.9951 111.122 38.4441H111.122ZM112.353 32.6345C112.439 32.6579 112.481 32.6793 112.523 32.6796C113.11 32.6817 113.698 32.7017 114.283 32.6746C114.815 32.6501 115.256 32.4059 115.589 31.985C115.885 31.6114 116.044 31.1776 116.084 30.7079C116.169 29.7273 115.482 29.2215 114.742 29.2626C114.438 29.2796 114.132 29.2653 113.827 29.2653C113.582 29.2653 113.337 29.2653 113.064 29.2653C112.823 30.4066 112.589 31.5166 112.353 32.6345Z" fill="white"/>
<path d="M62.0131 33.6258C62.1063 33.653 62.2011 33.675 62.2919 33.7087C62.5442 33.8017 62.8117 33.8697 63.043 34.0011C63.566 34.2987 63.8132 34.7902 63.8481 35.3737C63.9124 36.4572 63.7014 37.4915 63.1599 38.4368C62.594 39.4249 61.7076 40.0023 60.6161 40.2445C60.0918 40.361 59.5472 40.428 59.0108 40.4364C57.4769 40.4616 55.9424 40.4456 54.4085 40.4446C54.3313 40.4446 54.2537 40.4324 54.1328 40.4225C54.1443 40.303 54.144 40.1953 54.1657 40.092C54.7807 37.1885 55.3981 34.2858 56.0145 31.3826C56.2912 30.08 56.5662 28.7774 56.8426 27.4748C56.8541 27.4207 56.8727 27.3684 56.8937 27.2961C56.9831 27.2873 57.0691 27.2716 57.1555 27.2716C58.6897 27.2703 60.2239 27.2648 61.7581 27.274C62.3098 27.2774 62.8619 27.3175 63.397 27.4707C64.4174 27.7628 64.9288 28.4374 64.9484 29.5026C64.963 30.2964 64.812 31.0538 64.4469 31.7603C63.9924 32.6397 63.2801 33.2083 62.3295 33.478C62.2245 33.5079 62.1208 33.5429 62.0169 33.5755C62.0158 33.5925 62.0145 33.6095 62.0135 33.6265L62.0131 33.6258ZM57.2168 38.4348C57.9558 38.4348 58.644 38.4776 59.324 38.4229C60.0065 38.3679 60.5192 37.983 60.8274 37.3597C61.0499 36.9097 61.1719 36.4304 61.1756 35.9263C61.181 35.1815 60.8186 34.7579 60.0742 34.6985C59.492 34.6516 58.9054 34.655 58.3205 34.6461C58.0242 34.6417 58.0212 34.6512 57.9541 34.9627C57.8142 35.6125 57.6777 36.2633 57.5399 36.9134C57.4349 37.408 57.3299 37.9025 57.2168 38.4351V38.4348ZM58.4469 32.6299C58.5231 32.654 58.5644 32.6785 58.6057 32.6785C59.2025 32.6808 59.7999 32.6988 60.3956 32.6734C60.8481 32.6537 61.2447 32.459 61.559 32.1255C61.9799 31.6785 62.1838 31.1357 62.1865 30.5277C62.1896 29.7808 61.6812 29.2777 60.9341 29.2672C60.4274 29.26 59.9208 29.2645 59.4141 29.2665C59.3379 29.2665 59.2621 29.2811 59.1571 29.2916C58.92 30.4068 58.6846 31.5144 58.4472 32.6299H58.4469Z" fill="white"/>
<path d="M146.491 32.0709C146.83 30.4843 147.169 28.8974 147.512 27.2925H149.999C149.987 27.4036 149.986 27.5041 149.966 27.6006C149.216 31.1331 148.464 34.6653 147.713 38.1975C147.569 38.8707 147.423 39.5436 147.285 40.2178C147.256 40.3574 147.21 40.4464 147.05 40.4454C146.362 40.4406 145.674 40.4406 144.986 40.4366C144.956 40.4366 144.927 40.4118 144.874 40.3883C144.927 40.0942 144.981 39.799 145.037 39.4865C144.873 39.4824 144.833 39.6061 144.766 39.6811C143.974 40.566 142.974 40.7552 141.867 40.5252C141.33 40.4135 140.986 40.0527 140.806 39.532C140.614 38.9716 140.615 38.3897 140.692 37.8211C140.884 36.3881 141.164 34.9707 141.617 33.594C141.819 32.9778 142.101 32.398 142.554 31.9238C143.362 31.0784 144.345 30.8957 145.44 31.2027C145.815 31.3077 146.083 31.5652 146.281 31.8973C146.32 31.9619 146.369 32.02 146.414 32.0811C146.439 32.0777 146.465 32.0743 146.49 32.0706L146.491 32.0709ZM143.17 37.8714C143.185 38.0538 143.185 38.2926 143.228 38.5236C143.294 38.8819 143.53 39.0528 143.895 39.0718C144.298 39.0928 144.609 38.9217 144.8 38.5884C144.988 38.2583 145.172 37.9084 145.264 37.5436C145.537 36.4618 145.779 35.3715 146 34.2777C146.067 33.9418 146.065 33.5797 146.027 33.237C145.976 32.7774 145.642 32.5512 145.193 32.6086C144.826 32.6555 144.523 32.8253 144.334 33.1446C144.191 33.3854 144.057 33.6412 143.977 33.9075C143.593 35.185 143.337 36.49 143.17 37.8714Z" fill="white"/>
<path d="M90.4568 31.2631C89.8079 32.0297 89.2176 32.7271 88.6272 33.4244C88.1531 33.9845 87.6874 34.5524 87.2004 35.101C87.0412 35.2803 87.0311 35.4318 87.1083 35.6451C87.6454 37.1308 88.1721 38.6206 88.7011 40.1094C88.7309 40.1933 88.7532 40.2796 88.7786 40.3631C88.5582 40.4623 86.6304 40.4969 85.9707 40.4113C85.5382 38.7806 85.0999 37.1291 84.662 35.4777C84.6363 35.4753 84.6102 35.4726 84.5845 35.4702C84.5564 35.5558 84.5198 35.6397 84.5008 35.7273C84.1879 37.1838 83.8776 38.6407 83.5657 40.0972C83.5427 40.2055 83.5115 40.3118 83.4773 40.4463C82.6533 40.4395 81.8476 40.463 80.9854 40.4277C81.9201 36.0195 82.8457 31.6544 83.772 27.2866H86.2897C85.736 29.899 85.1876 32.4856 84.6397 35.0721L84.7101 35.1136C84.7951 35.0188 84.8842 34.9274 84.9645 34.8286C85.8454 33.7403 86.7307 32.6554 87.6 31.5583C87.7704 31.3433 87.9431 31.2461 88.2225 31.2563C88.8308 31.2784 89.4407 31.2631 90.0497 31.2631H90.4568Z" fill="white"/>
<path d="M152.388 33.8613H149.963C150.142 33.0199 150.484 32.311 151.171 31.7985C151.643 31.4466 152.18 31.2492 152.754 31.1582C153.71 31.0064 154.662 31.0278 155.605 31.2655C155.735 31.2985 155.863 31.3471 155.987 31.3994C156.661 31.684 157.018 32.2027 157.011 32.9279C157.006 33.3756 156.943 33.8283 156.854 34.2685C156.531 35.8728 156.184 37.4719 155.852 39.0741C155.797 39.3387 155.775 39.6098 155.738 39.8781C155.713 40.0551 155.688 40.2321 155.661 40.424H153.352C153.391 40.029 153.428 39.658 153.465 39.2871C153.443 39.2763 153.421 39.265 153.399 39.2542C153.317 39.3388 153.232 39.4206 153.152 39.5079C152.652 40.0592 152.057 40.4481 151.312 40.5636C150.888 40.6291 150.461 40.6431 150.037 40.5364C149.39 40.3734 149.014 39.9515 148.868 39.3126C148.723 38.6774 148.824 38.0548 148.982 37.4376C149.181 36.6652 149.524 35.9798 150.16 35.4686C150.665 35.0623 151.253 34.8494 151.88 34.7251C152.547 34.5926 153.222 34.578 153.899 34.5858C154.032 34.5875 154.164 34.5858 154.314 34.5858C154.432 34.0895 154.574 33.6378 154.562 33.1575C154.552 32.7723 154.395 32.5818 154.02 32.489C153.421 32.3409 152.875 32.6008 152.628 33.1667C152.534 33.3827 152.473 33.6133 152.388 33.8609L152.388 33.8613ZM154.008 35.9947C153.434 35.9737 152.892 35.9635 152.384 36.1778C152.175 36.2661 151.96 36.4149 151.827 36.5956C151.411 37.1649 151.279 37.8262 151.351 38.5222C151.384 38.8347 151.611 39.0361 151.912 39.0657C152.39 39.1129 152.815 38.9824 153.123 38.6041C153.291 38.3972 153.452 38.1621 153.536 37.9128C153.702 37.4234 153.814 36.9156 153.943 36.4135C153.975 36.2872 153.984 36.1547 154.009 35.9947H154.008Z" fill="white"/>
<path d="M71.36 40.4279H69.0519C69.0926 40.0346 69.1312 39.6623 69.1698 39.29C69.1491 39.2781 69.1285 39.2659 69.1075 39.254C69.0252 39.3362 68.9388 39.415 68.8606 39.501C68.3604 40.0506 67.7687 40.4432 67.0233 40.5607C66.5989 40.6276 66.1725 40.6426 65.7488 40.5387C65.0867 40.3763 64.7094 39.9459 64.5638 39.2917C64.4375 38.7252 64.5137 38.1661 64.6407 37.6141C64.8347 36.7717 65.1761 36.0095 65.8779 35.4549C66.3771 35.0602 66.9532 34.8479 67.5682 34.7276C68.1788 34.6084 68.7966 34.5741 69.418 34.5853C69.6077 34.5887 69.7977 34.586 70.0117 34.586C70.135 34.068 70.2854 33.5847 70.2563 33.0701C70.2403 32.7929 70.0927 32.6129 69.8292 32.5212C69.2179 32.3082 68.5967 32.5629 68.3339 33.1546C68.2344 33.3788 68.1693 33.6186 68.085 33.8611H65.6716C65.699 33.7297 65.7156 33.6125 65.7485 33.4997C66.097 32.3034 66.8668 31.5371 68.0803 31.2423C69.1505 30.9821 70.2241 31.0035 71.2916 31.2644C71.4755 31.3092 71.6564 31.3826 71.8264 31.4675C72.4197 31.764 72.7154 32.2691 72.7106 32.9158C72.7073 33.3635 72.6433 33.8163 72.5545 34.2562C72.2287 35.8706 71.8748 37.4796 71.5463 39.0934C71.4589 39.5227 71.424 39.9626 71.361 40.4269L71.36 40.4279ZM69.7201 35.9888C69.1153 35.9807 68.5507 35.9644 68.024 36.2001C67.8361 36.284 67.6471 36.4256 67.5272 36.591C67.1123 37.163 66.9796 37.8227 67.049 38.5187C67.0788 38.8182 67.2928 39.0336 67.5743 39.0574C67.7724 39.074 67.9807 39.0577 68.1748 39.0139C68.5863 38.9208 68.8562 38.6352 69.0651 38.285C69.3354 37.8315 69.4553 37.3254 69.5664 36.8176C69.6236 36.5567 69.6643 36.2921 69.7198 35.9892L69.7201 35.9888Z" fill="white"/>
<path d="M125.261 40.4263H122.96C122.998 40.033 123.035 39.6624 123.071 39.2915L123.006 39.2633C122.931 39.3387 122.85 39.4097 122.78 39.4899C122.021 40.3495 121.067 40.7021 119.935 40.5955C119.197 40.5262 118.675 40.0805 118.488 39.3713C118.225 38.371 118.653 36.298 119.773 35.46C120.282 35.0786 120.848 34.8517 121.463 34.7291C122.152 34.5915 122.85 34.5752 123.55 34.5861C123.661 34.5878 123.773 34.5861 123.911 34.5861C124.048 34.0661 124.198 33.5729 124.158 33.0457C124.139 32.7954 124.002 32.6282 123.773 32.5348C123.196 32.2988 122.526 32.5494 122.258 33.1187C122.149 33.3514 122.081 33.6041 121.989 33.8609H119.584C119.607 33.7349 119.618 33.617 119.651 33.5053C120.003 32.2947 120.788 31.525 122.014 31.2346C123.074 30.9836 124.137 31.0053 125.195 31.2635C125.347 31.3005 125.497 31.3558 125.64 31.4207C126.264 31.7043 126.586 32.1948 126.624 32.8793C126.65 33.3589 126.557 33.8235 126.46 34.2882C126.123 35.9009 125.782 37.513 125.45 39.1271C125.393 39.4029 125.373 39.6858 125.333 39.9654C125.313 40.1097 125.288 40.2534 125.261 40.4267V40.4263ZM123.626 35.9974C123.044 35.9702 122.52 35.9848 122.012 36.1598C121.771 36.2426 121.567 36.3867 121.424 36.5969C121.035 37.1699 120.89 37.8126 120.954 38.4946C120.989 38.8689 121.242 39.0561 121.626 39.071C122.216 39.0938 122.641 38.8214 122.937 38.3312C123.362 37.6292 123.467 36.833 123.626 35.9974H123.626Z" fill="white"/>
<path d="M72.6885 40.3813C73.3309 37.3511 73.9734 34.3196 74.6183 31.2779H77.1211C77.0706 31.5618 77.0225 31.8305 76.97 32.125C77.1444 32.106 77.199 31.984 77.2819 31.9056C78.1273 31.1053 79.1203 30.8825 80.2217 31.2021C81.0446 31.4409 81.445 32.1155 81.277 32.9555C80.9806 34.4388 80.6592 35.9171 80.3466 37.3966C80.1576 38.2913 79.9653 39.1853 79.7736 40.0793C79.7502 40.1887 79.7204 40.2964 79.6893 40.4231H77.2135C77.2342 40.2831 77.2457 40.1642 77.2701 40.0481C77.6941 38.0379 78.1252 36.0288 78.5391 34.0166C78.597 33.7344 78.5919 33.4341 78.5808 33.1437C78.5713 32.8944 78.4067 32.7384 78.1713 32.6583C77.7131 32.5024 77.1814 32.6617 76.925 33.0869C76.7709 33.3431 76.6523 33.6358 76.587 33.928C76.2585 35.3929 75.9526 36.8627 75.6387 38.3307C75.5042 38.9601 75.3664 39.5885 75.238 40.2189C75.2096 40.3596 75.1625 40.4472 75.003 40.4462C74.2698 40.4414 73.5362 40.4411 72.8029 40.4367C72.7742 40.4367 72.745 40.4098 72.6885 40.3816V40.3813Z" fill="white"/>
<path d="M95.3501 40.6541C94.8946 40.5899 94.4306 40.5614 93.9856 40.4541C93.0112 40.2183 92.4748 39.5526 92.3837 38.5567C92.318 37.8407 92.3992 37.1365 92.5266 36.4345C92.7 35.4783 92.8991 34.5282 93.2764 33.6274C93.6832 32.6567 94.2992 31.8744 95.2953 31.4529C96.1338 31.0979 97.0154 31.0059 97.9122 31.0939C98.2895 31.1309 98.6702 31.2094 99.0298 31.3279C99.7986 31.5813 100.208 32.1523 100.353 32.9383C100.45 33.4692 100.419 33.9987 100.342 34.5238C100.166 35.7089 99.9256 36.8801 99.4722 37.9959C99.2276 38.5978 98.9028 39.1498 98.4229 39.5981C97.731 40.2442 96.8864 40.5166 95.9655 40.5927C95.764 40.6093 95.5598 40.595 95.3569 40.595C95.3545 40.6147 95.3525 40.6341 95.3501 40.6538V40.6541ZM97.9606 33.783C97.9322 33.5768 97.9217 33.4413 97.8939 33.3099C97.8055 32.8931 97.5698 32.691 97.1454 32.6645C96.6141 32.6312 96.1894 32.8296 95.9276 33.2966C95.7745 33.5697 95.6333 33.8632 95.5604 34.1651C95.3342 35.1077 95.1232 36.0547 94.9478 37.0078C94.8689 37.4365 94.8655 37.8835 94.8699 38.3216C94.8736 38.6817 95.0629 38.9341 95.3474 38.9823C95.9902 39.091 96.4325 39.0006 96.7705 38.4161C96.9216 38.1549 97.0486 37.8699 97.1288 37.5798C97.33 36.8522 97.5126 36.1189 97.6751 35.3815C97.7964 34.8319 97.8743 34.2728 97.96 33.783H97.9606Z" fill="white"/>
<path d="M135.342 40.6304C135.018 40.5999 134.69 40.5873 134.369 40.5357C133.033 40.32 132.377 39.5958 132.365 38.2392C132.36 37.6118 132.449 36.9787 132.549 36.3567C132.699 35.4203 132.913 34.496 133.285 33.617C133.607 32.8527 134.062 32.1921 134.77 31.7325C135.251 31.4207 135.782 31.2369 136.341 31.1483C137.104 31.0277 137.867 31.0267 138.626 31.1962C139.713 31.4394 140.287 32.1011 140.385 33.2196C140.443 33.8792 140.359 34.527 140.236 35.1716C140.046 36.1703 139.831 37.1624 139.426 38.1013C139.103 38.8513 138.658 39.5058 137.961 39.9609C137.35 40.3597 136.67 40.5377 135.953 40.5931C135.751 40.6087 135.547 40.5954 135.344 40.5954C135.343 40.607 135.343 40.6185 135.342 40.6301V40.6304ZM135.795 39.018C136.199 39.0418 136.552 38.8271 136.775 38.4172C136.92 38.1512 137.048 37.87 137.139 37.5816C137.475 36.5147 137.704 35.421 137.879 34.3174C137.929 33.9984 137.927 33.6639 137.897 33.3412C137.861 32.9441 137.633 32.7257 137.247 32.6751C136.74 32.6089 136.29 32.744 136.007 33.188C135.822 33.4787 135.658 33.8035 135.575 34.136C135.341 35.0762 135.135 36.0249 134.956 36.977C134.877 37.3941 134.849 37.8302 134.87 38.2545C134.898 38.8312 135.145 39.0228 135.795 39.018H135.795Z" fill="white"/>
<path d="M102.33 31.2707C102.43 30.8023 102.512 30.3828 102.61 29.967C102.691 29.6274 102.781 29.2887 102.888 28.9562C103.212 27.943 103.936 27.3975 104.966 27.2759C105.535 27.2089 106.113 27.2225 106.687 27.2035C106.752 27.2015 106.818 27.2225 106.924 27.2392C106.871 27.7629 106.724 28.2555 106.622 28.7728C106.445 28.7952 106.281 28.8159 106.116 28.8366C105.663 28.893 105.378 29.1627 105.239 29.5788C105.139 29.877 105.076 30.1882 105.004 30.4956C104.951 30.7235 104.91 30.9544 104.852 31.2398H106.037C105.977 31.5441 105.931 31.7934 105.878 32.0417C105.827 32.2832 105.77 32.523 105.709 32.789H104.52C104.442 33.1368 104.364 33.4622 104.295 33.7896C103.856 35.8653 103.424 37.9424 102.979 40.0164C102.886 40.4488 102.991 40.4471 102.468 40.4461C101.893 40.4451 101.318 40.4464 100.742 40.4451C100.634 40.4451 100.526 40.4359 100.378 40.4291C100.918 37.8731 101.449 35.3606 101.991 32.7992H100.847C100.959 32.2683 101.061 31.7866 101.17 31.2707H102.33Z" fill="white"/>
<path d="M126.597 40.3664C127.238 37.3424 127.878 34.3217 128.522 31.2837H130.899C130.828 31.6519 130.761 32.0004 130.694 32.3489C130.712 32.3612 130.729 32.3734 130.747 32.3853C130.914 32.2052 131.069 32.011 131.253 31.8489C131.437 31.6862 131.638 31.5303 131.855 31.4182C132.082 31.3011 132.334 31.2199 132.583 31.1584C132.821 31.1 133.069 31.0877 133.365 31.0483C133.251 31.8286 133.062 32.5527 132.908 33.3081C132.699 33.317 132.499 33.3248 132.299 33.3336C131.245 33.3805 130.562 33.9049 130.289 34.9222C130.128 35.5207 130.012 36.1311 129.883 36.7378C129.647 37.841 129.417 38.9449 129.185 40.0488C129.168 40.1259 129.164 40.2122 129.125 40.2764C129.084 40.3433 129.009 40.4357 128.948 40.4357C128.183 40.4377 127.419 40.4255 126.654 40.4157C126.645 40.4157 126.637 40.4017 126.597 40.3661L126.597 40.3664Z" fill="white"/>
</mask>
<g mask="url(#mask0_1556_6337)">
<rect x="-15.4902" y="-67.9321" width="186.785" height="186.785" rx="93.3923" fill="#595757"/>
</g>
</svg>
