<svg width="168" height="37" viewBox="0 0 168 37" fill="none" xmlns="http://www.w3.org/2000/svg">
<path d="M53.8165 30.4032C51.4197 30.4032 49.3701 29.9888 47.6677 29.16C45.9653 28.3088 44.6661 26.9984 43.7701 25.2288C42.8965 23.4592 42.4597 21.208 42.4597 18.4752C42.4597 14.4432 43.4453 11.4528 45.4165 9.504C47.4101 7.5328 50.2101 6.5472 53.8165 6.5472C55.7877 6.5472 57.5573 6.8832 59.1253 7.5552C60.6933 8.2272 61.9253 9.2352 62.8213 10.5792C63.7397 11.9232 64.1989 13.6144 64.1989 15.6528H59.1589C59.1589 14.5776 58.9349 13.6704 58.4869 12.9312C58.0613 12.192 57.4453 11.632 56.6389 11.2512C55.8549 10.848 54.9365 10.6464 53.8837 10.6464C52.4501 10.6464 51.2629 10.9264 50.3221 11.4864C49.4037 12.0464 48.7205 12.8752 48.2725 13.9728C47.8469 15.048 47.6341 16.3696 47.6341 17.9376V18.9792C47.6341 20.592 47.8581 21.9472 48.3061 23.0448C48.7541 24.12 49.4261 24.9376 50.3221 25.4976C51.2405 26.0352 52.4165 26.304 53.8501 26.304C54.9701 26.304 55.9445 26.1136 56.7733 25.7328C57.6021 25.352 58.2405 24.792 58.6885 24.0528C59.1365 23.3136 59.3605 22.4064 59.3605 21.3312H64.1989C64.1989 23.3696 63.7509 25.0608 62.8549 26.4048C61.9813 27.7488 60.7605 28.7568 59.1925 29.4288C57.6245 30.0784 55.8325 30.4032 53.8165 30.4032ZM71.5707 30.4032C70.9883 30.4032 70.3611 30.336 69.6891 30.2016C69.0395 30.0672 68.4235 29.832 67.8411 29.496C67.2587 29.1376 66.7771 28.6336 66.3963 27.984C66.0379 27.312 65.8587 26.4608 65.8587 25.4304C65.8587 24.1984 66.1275 23.1792 66.6651 22.3728C67.2027 21.5664 67.9643 20.9392 68.9499 20.4912C69.9579 20.0208 71.1563 19.696 72.5451 19.5168C73.9339 19.3376 75.4683 19.248 77.1483 19.248V17.9376C77.1483 17.4224 77.0587 16.9744 76.8795 16.5936C76.7227 16.2128 76.4315 15.9104 76.0059 15.6864C75.6027 15.4624 75.0315 15.3504 74.2923 15.3504C73.5531 15.3504 72.9483 15.44 72.4779 15.6192C72.0299 15.7984 71.7051 16.0336 71.5035 16.3248C71.3243 16.5936 71.2347 16.896 71.2347 17.232V17.6352H66.6987C66.6763 17.5232 66.6651 17.4224 66.6651 17.3328C66.6651 17.2208 66.6651 17.0864 66.6651 16.9296C66.6651 15.8992 66.9787 15.0144 67.6059 14.2752C68.2331 13.5136 69.1179 12.9312 70.2603 12.528C71.4027 12.1248 72.7355 11.9232 74.2587 11.9232C75.8939 11.9232 77.2603 12.136 78.3579 12.5616C79.4779 12.9872 80.3291 13.6144 80.9115 14.4432C81.5163 15.272 81.8187 16.3136 81.8187 17.568V25.5984C81.8187 26.0016 81.9307 26.304 82.1547 26.5056C82.4011 26.6848 82.6699 26.7744 82.9611 26.7744H84.0699V29.832C83.8459 29.944 83.4987 30.056 83.0283 30.168C82.5579 30.3024 81.9867 30.3696 81.3147 30.3696C80.6651 30.3696 80.0827 30.2688 79.5675 30.0672C79.0747 29.888 78.6603 29.6304 78.3243 29.2944C77.9883 28.936 77.7531 28.5104 77.6187 28.0176H77.3835C77.0027 28.488 76.5323 28.9024 75.9723 29.2608C75.4347 29.6192 74.7963 29.8992 74.0571 30.1008C73.3403 30.3024 72.5115 30.4032 71.5707 30.4032ZM73.1499 26.8752C73.7771 26.8752 74.3371 26.7856 74.8299 26.6064C75.3227 26.4048 75.7371 26.1472 76.0731 25.8336C76.4091 25.4976 76.6667 25.0944 76.8459 24.624C77.0475 24.1536 77.1483 23.6496 77.1483 23.112V22.1376C75.8939 22.1376 74.7739 22.2272 73.7883 22.4064C72.8027 22.5632 72.0187 22.8432 71.4363 23.2464C70.8763 23.6496 70.5963 24.2096 70.5963 24.9264C70.5963 25.3296 70.6971 25.6768 70.8987 25.968C71.1003 26.2592 71.3915 26.4832 71.7723 26.64C72.1531 26.7968 72.6123 26.8752 73.1499 26.8752ZM92.8757 30.4032C91.6437 30.4032 90.5349 30.2688 89.5493 30C88.5637 29.7312 87.7237 29.3616 87.0293 28.8912C86.3349 28.3984 85.7973 27.816 85.4165 27.144C85.0581 26.472 84.8789 25.7104 84.8789 24.8592C84.8789 24.7696 84.8789 24.68 84.8789 24.5904C84.8789 24.5008 84.8901 24.4336 84.9125 24.3888H89.4149C89.4149 24.4336 89.4149 24.4784 89.4149 24.5232C89.4149 24.568 89.4149 24.6128 89.4149 24.6576C89.4373 25.2176 89.6165 25.6768 89.9525 26.0352C90.2885 26.3712 90.7253 26.6176 91.2629 26.7744C91.8229 26.9312 92.4053 27.0096 93.0101 27.0096C93.5477 27.0096 94.0629 26.9648 94.5557 26.8752C95.0709 26.7632 95.4965 26.5728 95.8325 26.304C96.1909 26.0352 96.3701 25.688 96.3701 25.2624C96.3701 24.7248 96.1461 24.3104 95.6981 24.0192C95.2725 23.728 94.7013 23.4928 93.9845 23.3136C93.2901 23.1344 92.5285 22.9328 91.6997 22.7088C90.9381 22.5296 90.1765 22.328 89.4149 22.104C88.6533 21.8576 87.9589 21.544 87.3317 21.1632C86.7269 20.7824 86.2341 20.2896 85.8533 19.6848C85.4725 19.0576 85.2821 18.2736 85.2821 17.3328C85.2821 16.4144 85.4837 15.6192 85.8869 14.9472C86.2901 14.2528 86.8389 13.6816 87.5333 13.2336C88.2501 12.7856 89.0789 12.4608 90.0197 12.2592C90.9829 12.0352 92.0133 11.9232 93.1109 11.9232C94.1413 11.9232 95.1045 12.0352 96.0005 12.2592C96.8965 12.4608 97.6805 12.7744 98.3525 13.2C99.0245 13.6032 99.5509 14.1184 99.9317 14.7456C100.313 15.3504 100.503 16.0336 100.503 16.7952C100.503 16.952 100.503 17.0976 100.503 17.232C100.503 17.3664 100.492 17.456 100.469 17.5008H96.0005V17.232C96.0005 16.8288 95.8773 16.4928 95.6309 16.224C95.3845 15.9328 95.0261 15.7088 94.5557 15.552C94.1077 15.3952 93.5589 15.3168 92.9093 15.3168C92.4613 15.3168 92.0469 15.3504 91.6661 15.4176C91.3077 15.4848 90.9941 15.5856 90.7253 15.72C90.4565 15.8544 90.2437 16.0224 90.0869 16.224C89.9525 16.4032 89.8853 16.6272 89.8853 16.896C89.8853 17.2768 90.0421 17.5904 90.3557 17.8368C90.6917 18.0608 91.1285 18.2512 91.6661 18.408C92.2037 18.5648 92.7973 18.7328 93.4469 18.912C94.2533 19.136 95.0933 19.36 95.9669 19.584C96.8629 19.7856 97.6917 20.0656 98.4533 20.424C99.2149 20.7824 99.8309 21.2976 100.301 21.9696C100.772 22.6192 101.007 23.504 101.007 24.624C101.007 25.6992 100.794 26.6064 100.369 27.3456C99.9653 28.0848 99.3941 28.6784 98.6549 29.1264C97.9157 29.5744 97.0533 29.8992 96.0677 30.1008C95.0821 30.3024 94.0181 30.4032 92.8757 30.4032ZM103.549 30V5.7072H108.22V14.2752H108.455C108.836 13.8048 109.284 13.4016 109.799 13.0656C110.336 12.7072 110.93 12.4272 111.58 12.2256C112.252 12.024 112.98 11.9232 113.764 11.9232C114.928 11.9232 115.948 12.136 116.821 12.5616C117.695 12.9872 118.367 13.6592 118.837 14.5776C119.33 15.496 119.576 16.6944 119.576 18.1728V30H114.906V18.912C114.906 18.352 114.839 17.8816 114.704 17.5008C114.57 17.0976 114.368 16.7728 114.1 16.5264C113.853 16.2576 113.54 16.0672 113.159 15.9552C112.778 15.8432 112.352 15.7872 111.882 15.7872C111.188 15.7872 110.56 15.9552 110 16.2912C109.44 16.6272 109.004 17.0864 108.69 17.6688C108.376 18.2512 108.22 18.9232 108.22 19.6848V30H103.549ZM122.485 30V6.9504H139.487V11.0496H127.491V16.7616H138.21V20.8272H127.491V30H122.485ZM141.639 30V5.7072H146.31V30H141.639ZM157.888 30.4032C155.962 30.4032 154.327 30.0784 152.983 29.4288C151.639 28.7568 150.619 27.7376 149.925 26.3712C149.231 24.9824 148.883 23.2464 148.883 21.1632C148.883 19.0352 149.231 17.2992 149.925 15.9552C150.619 14.5888 151.639 13.5808 152.983 12.9312C154.327 12.2592 155.962 11.9232 157.888 11.9232C159.859 11.9232 161.506 12.2592 162.827 12.9312C164.171 13.5808 165.191 14.5888 165.885 15.9552C166.579 17.2992 166.927 19.0352 166.927 21.1632C166.927 23.2464 166.579 24.9824 165.885 26.3712C165.191 27.7376 164.171 28.7568 162.827 29.4288C161.506 30.0784 159.859 30.4032 157.888 30.4032ZM157.888 26.7744C158.919 26.7744 159.736 26.584 160.341 26.2032C160.968 25.8224 161.427 25.24 161.719 24.456C162.01 23.672 162.155 22.7088 162.155 21.5664V20.76C162.155 19.6176 162.01 18.6544 161.719 17.8704C161.427 17.0864 160.968 16.504 160.341 16.1232C159.736 15.72 158.919 15.5184 157.888 15.5184C156.88 15.5184 156.063 15.72 155.435 16.1232C154.831 16.504 154.383 17.0864 154.091 17.8704C153.8 18.6544 153.655 19.6176 153.655 20.76V21.5664C153.655 22.7088 153.8 23.672 154.091 24.456C154.383 25.24 154.831 25.8224 155.435 26.2032C156.063 26.584 156.88 26.7744 157.888 26.7744Z" fill="black"/>
<path d="M5.9897 29.3808C5.50057 28.9831 4.98921 28.6075 4.51491 28.1877C2.32866 26.2506 0.987265 23.8126 0.386973 20.9917C-0.280018 17.8835 -0.116976 14.8048 1.12807 11.844C2.18785 9.32501 3.91462 7.38056 6.29355 6.00324C8.13889 4.93526 10.125 4.30921 12.252 4.25028C15.1423 4.17663 18.0326 4.1398 20.9155 4.21346C23.791 4.28711 26.4293 5.15622 28.7193 6.93863C30.3497 8.20547 31.5725 9.78902 32.3951 11.6746C33.7662 14.8269 33.907 18.0824 33.1214 21.3821C32.4174 24.3282 30.8759 26.7809 28.4969 28.6959C28.3561 28.8063 28.2079 28.9021 27.993 29.0494C27.993 28.8505 27.993 28.718 27.993 28.5928C27.993 26.5157 27.9856 24.4461 28.0004 22.369C28.0004 22.0229 28.0671 21.6693 28.1783 21.3379C29.1565 18.5391 29.075 15.7918 27.6521 13.1697C26.4515 10.9454 24.5098 9.64908 22.0494 9.12614C21.4268 8.99357 20.7821 8.94937 20.1447 8.94201C17.8251 8.91991 15.498 8.91991 13.1784 8.93464C10.8661 8.94937 8.86517 9.76693 7.24957 11.402C5.89336 12.772 5.14484 14.4513 4.90028 16.3515C4.62607 18.4728 4.9151 20.4982 5.923 22.4059C6.02675 22.5974 6.07863 22.8478 6.07863 23.0687C6.09345 25.1458 6.08604 27.2154 6.08604 29.2925C6.04899 29.3367 6.01934 29.3587 5.9897 29.3808Z" fill="black"/>
<path d="M21.3789 22.4951C21.3789 19.6889 21.3789 16.8754 21.3789 14.0692C21.3789 13.5831 21.3789 13.5831 21.8532 13.5831C23.2465 13.5831 24.6398 13.5904 26.0404 13.5757C26.3665 13.5757 26.4851 13.642 26.4851 13.9955C26.4703 19.2249 26.4777 24.447 26.4851 29.6764C26.4851 29.9268 26.411 30.0667 26.1812 30.1846C24.8398 30.8695 23.4169 31.2673 21.9273 31.444C21.4011 31.5103 21.3863 31.4882 21.3863 30.9653C21.3789 28.1444 21.3789 25.3161 21.3789 22.4951Z" fill="#EF7065"/>
<path d="M14.5312 31.4953C14.5312 26.3621 14.5312 21.251 14.5312 16.1105C16.2284 16.1105 17.9181 16.1105 19.6226 16.1105C19.6226 21.2363 19.6226 26.3474 19.6226 31.4953C17.9403 31.4953 16.258 31.4953 14.5312 31.4953Z" fill="#EF7065"/>
<path d="M12.7928 31.5686C12.0665 31.4729 11.3476 31.436 10.6658 31.2666C9.78389 31.0531 8.93162 30.7438 8.06454 30.4713C7.79774 30.3902 7.65693 30.243 7.66434 29.9115C7.67916 26.3249 7.67175 22.7457 7.67175 19.1591C7.67175 19.0413 7.68657 18.9161 7.68657 18.7762C9.39852 18.7762 11.0808 18.7762 12.7928 18.7762C12.7928 23.0035 12.7928 27.2308 12.7928 31.5686Z" fill="#EF7065"/>
</svg>
