<svg width="123" height="83" viewBox="0 0 123 83" fill="none" xmlns="http://www.w3.org/2000/svg">
<path d="M3.51339 62.9634V31.2504H28.2458V36.3818H9.52313V44.1945H26.2117V49.3259H9.52313V57.832H28.5232V62.9634H3.51339ZM35.4979 62.9634V31.2504H52.1865C54.5288 31.2504 56.4704 31.6511 58.0114 32.4524C59.5523 33.2537 60.708 34.394 61.4785 35.8733C62.249 37.3526 62.6342 39.0939 62.6342 41.0972C62.6342 43.162 62.172 44.9958 61.2474 46.5984C60.3228 48.1702 58.9668 49.3567 57.1792 50.158L63.7437 62.9634H57.1792L51.3544 51.175H41.5077V62.9634H35.4979ZM41.5077 46.1361H51.7242C53.2652 46.1361 54.4517 45.6892 55.2839 44.7955C56.116 43.9017 56.532 42.6689 56.532 41.0972C56.532 40.0801 56.3471 39.2326 55.9773 38.5546C55.6075 37.8457 55.0681 37.3064 54.3593 36.9366C53.6504 36.5667 52.7721 36.3818 51.7242 36.3818H41.5077V46.1361ZM69.5592 62.9634V31.2504H85.4619C87.8041 31.2504 89.7303 31.6665 91.2405 32.4986C92.7814 33.3307 93.9371 34.5019 94.7076 36.012C95.4781 37.5221 95.8634 39.3251 95.8634 41.4208C95.8634 43.4856 95.4627 45.2886 94.6614 46.8295C93.8601 48.3705 92.6582 49.5724 91.0556 50.4354C89.4838 51.2675 87.5113 51.6836 85.1383 51.6836H75.5689V62.9634H69.5592ZM75.5689 46.5522H84.9534C86.4943 46.5522 87.6809 46.1053 88.513 45.2115C89.3759 44.2869 89.8074 43.0234 89.8074 41.4208C89.8074 40.3421 89.6225 39.4329 89.2526 38.6933C88.8828 37.9536 88.3435 37.3834 87.6346 36.9828C86.9258 36.5821 86.032 36.3818 84.9534 36.3818H75.5689V46.5522ZM110.422 63.5181C108.665 63.5181 107.124 63.3332 105.799 62.9634C104.474 62.5627 103.364 62.0234 102.47 61.3454C101.577 60.6673 100.899 59.8815 100.436 58.9877C100.005 58.0631 99.7892 57.0615 99.7892 55.9828C99.7892 55.8287 99.7892 55.69 99.7892 55.5668C99.82 55.4435 99.8354 55.351 99.8354 55.2894H105.383C105.383 55.351 105.383 55.4127 105.383 55.4743C105.383 55.536 105.383 55.5976 105.383 55.6592C105.414 56.4913 105.676 57.1694 106.169 57.6933C106.662 58.1864 107.309 58.5408 108.11 58.7566C108.912 58.9723 109.759 59.0802 110.653 59.0802C111.454 59.0802 112.209 59.0031 112.918 58.849C113.658 58.6641 114.259 58.3867 114.721 58.0169C115.214 57.6162 115.461 57.1077 115.461 56.4913C115.461 55.69 115.153 55.0737 114.536 54.6422C113.92 54.2107 113.103 53.8563 112.086 53.5789C111.1 53.3016 110.037 53.0088 108.896 52.7006C107.879 52.4232 106.862 52.115 105.845 51.776C104.828 51.437 103.904 51.0055 103.071 50.4816C102.27 49.9577 101.608 49.2797 101.084 48.4475C100.59 47.6154 100.344 46.583 100.344 45.3502C100.344 44.1483 100.606 43.1004 101.13 42.2066C101.654 41.3129 102.378 40.5732 103.303 39.9877C104.227 39.3713 105.321 38.909 106.585 38.6008C107.848 38.2926 109.22 38.1385 110.699 38.1385C112.148 38.1385 113.457 38.2926 114.629 38.6008C115.831 38.909 116.863 39.3559 117.726 39.9414C118.62 40.4962 119.298 41.1896 119.76 42.0217C120.253 42.823 120.5 43.7168 120.5 44.703C120.5 44.9187 120.484 45.1345 120.453 45.3502C120.453 45.5659 120.453 45.6892 120.453 45.72H114.952V45.3964C114.952 44.8109 114.767 44.3178 114.397 43.9171C114.058 43.4856 113.55 43.1466 112.872 42.9001C112.225 42.6535 111.408 42.5303 110.422 42.5303C109.682 42.5303 109.035 42.5919 108.48 42.7152C107.925 42.8384 107.463 43.0079 107.093 43.2237C106.754 43.4394 106.492 43.686 106.307 43.9633C106.123 44.2407 106.03 44.5489 106.03 44.8879C106.03 45.4735 106.261 45.9358 106.724 46.2748C107.186 46.6138 107.802 46.9066 108.573 47.1531C109.374 47.3997 110.237 47.6616 111.161 47.939C112.271 48.2472 113.411 48.5708 114.582 48.9098C115.754 49.218 116.832 49.6187 117.818 50.1118C118.835 50.6049 119.652 51.2983 120.269 52.1921C120.885 53.0858 121.193 54.2724 121.193 55.7517C121.193 57.1694 120.916 58.3867 120.361 59.4038C119.837 60.39 119.082 61.1913 118.096 61.8077C117.14 62.3932 116 62.8247 114.675 63.1021C113.38 63.3794 111.963 63.5181 110.422 63.5181Z" fill="#EF7065"/>
<path d="M15.3007 22C19.9028 22 23.3153 19.0372 24.1919 14.404L23.7536 14.3095C22.8144 17.0516 20.3411 18.8166 17.1791 18.8166C12.7335 18.8166 9.41501 15.2235 9.3837 9.80229C9.3524 4.44412 11.7317 0.882521 15.2068 0.882521C17.6174 0.882521 19.3706 2.93123 19.9341 6.02006L23.8162 4.85387C22.8144 1.79656 19.6211 0 15.5199 0C8.85149 0 4.93813 4.97994 5.00074 11.4728C5.00074 17.3668 9.25848 22 15.3007 22Z" fill="#EF7065"/>
<path d="M32.3226 16.6103V5.0745H31.8843L26.0299 6.74499V7.18625L26.5621 7.21776C27.7205 7.34384 28.284 7.91117 28.284 8.91977V16.8625C28.284 20.0143 29.7867 22 32.8235 22C35.015 22 36.6743 20.5501 38.2709 18.4699L38.4274 22H38.8657L44.5636 20.3295V19.8883L44.0001 19.8567C42.9356 19.7307 42.3095 19.2264 42.3095 18.1547V5.0745H41.8712L35.9855 6.74499V7.18625L36.549 7.21776C37.6761 7.34384 38.2396 7.91117 38.2396 8.91977V17.5559C37.0186 18.8797 36.0168 19.384 34.7645 19.384C33.2618 19.384 32.3226 18.3438 32.3226 16.6103Z" fill="#EF7065"/>
<path d="M53.433 21.9685C57.0959 21.9685 59.8822 19.8883 59.8509 16.7994C59.757 10.4327 50.3336 12.5129 50.3336 8.2894C50.3336 6.9341 51.398 5.98854 52.9008 5.98854C54.56 5.98854 56.0315 7.50143 56.7202 9.67622L59.4439 8.2894C58.6612 6.24069 56.188 5.10602 53.4017 5.10602C49.6135 5.10602 47.1403 7.18625 47.1716 10.086C47.2029 16.2951 56.5637 13.8367 56.595 18.6275C56.595 20.1089 55.374 21.086 53.7148 21.086C51.7424 21.086 50.0205 19.384 49.4257 16.8309L46.4516 18.4069C47.4534 20.4241 50.1458 21.9685 53.433 21.9685Z" fill="#EF7065"/>
<path d="M67.8153 1.54441H67.377L62.0549 5.98854V6.4298H63.7454V17.3983C63.7454 20.298 65.436 22 68.0971 22C70.6016 22 71.8852 20.5817 72.5114 19.5731L72.2609 19.3524C71.76 19.7307 71.2278 20.1404 70.2886 20.1404C68.6919 20.1404 67.8153 18.8797 67.8153 17.2407V6.4298H72.3861V5.54728H67.8153V1.54441Z" fill="#EF7065"/>
<path d="M81.9815 22C86.7714 22 90.0899 18.4069 90.0899 13.2063C90.0899 8.41547 86.8966 5.0745 82.2319 5.0745C77.442 5.0745 74.1234 8.69914 74.1234 13.8997C74.1234 18.6905 77.3167 22 81.9815 22ZM78.3185 12.1977C78.3185 8.57307 79.5082 5.95702 81.6684 5.95702C84.3608 5.95702 85.8948 10.2751 85.8948 14.8453C85.8948 18.5645 84.7052 21.1175 82.5763 21.1175C79.8839 21.1175 78.3185 16.8625 78.3185 12.1977Z" fill="#EF7065"/>
<path d="M92.6378 21.086V21.5272H100.183V21.086C98.9931 20.8023 98.4296 20.4556 98.4296 19.1318V9.36103C99.5566 8.19484 100.558 7.72206 101.811 7.72206C103.313 7.72206 104.221 8.76218 104.221 10.4957V19.1318C104.221 20.4556 103.658 20.8023 102.468 21.086V21.5272H110.013V21.086C108.855 20.8023 108.291 20.4556 108.291 19.1318V10.2436C108.291 9.9914 108.291 9.73925 108.26 9.51862C109.45 8.22636 110.483 7.72206 111.798 7.72206C113.269 7.72206 114.208 8.76218 114.208 10.4957V19.1318C114.208 20.4556 113.645 20.8023 112.455 21.086V21.5272H120V21.086C118.842 20.8023 118.278 20.4556 118.278 19.1318V10.2436C118.278 7.09169 116.744 5.10602 113.707 5.10602C111.422 5.10602 109.731 6.71347 108.166 8.76218C107.728 6.49284 106.256 5.10602 103.72 5.10602C101.592 5.10602 99.9323 6.55587 98.4296 8.44699V5.0745H97.9913L92.1056 6.74499V7.18625L92.6691 7.21776C93.8274 7.34384 94.3597 7.91117 94.3597 8.91977V19.1318C94.3597 20.4556 93.7961 20.8023 92.6378 21.086Z" fill="#EF7065"/>
</svg>
