<svg width="101" height="68" viewBox="0 0 101 68" fill="none" xmlns="http://www.w3.org/2000/svg">
<path d="M0 66.7092V55.7979H3.58976V59.4804H6.95334V55.7979H10.5489V66.7092H6.95334V62.4757H3.58976V66.7092H0Z" fill="#005192"/>
<path d="M16.2302 58.5091H17.161C17.8308 58.5091 18.3209 58.5786 18.634 58.7178C18.866 58.8193 19.0545 58.9701 19.2197 59.1963C19.3705 59.4195 19.4923 59.7009 19.5822 60.0546C19.6634 60.4055 19.7069 60.7766 19.7069 61.168C19.7069 61.8059 19.6199 62.3395 19.4314 62.7715C19.2487 63.2036 18.9849 63.5138 18.6456 63.7052C18.3064 63.8995 17.8018 63.9922 17.1349 63.9922L16.2302 63.9981V58.5091ZM17.6162 66.7092C18.4629 66.7092 19.1647 66.6396 19.7388 66.486C20.3158 66.3381 20.7855 66.1409 21.1451 65.906C21.5104 65.6653 21.841 65.3406 22.1455 64.9376C22.447 64.52 22.7109 63.9952 22.9167 63.3515C23.1284 62.7107 23.2299 61.9886 23.2299 61.1709C23.2299 59.9705 23.0009 58.9556 22.5369 58.1089C22.0672 57.2796 21.4293 56.6794 20.6145 56.3257C19.8026 55.9719 18.8341 55.7979 17.709 55.7979H12.7188V66.7092H17.6162Z" fill="#005192"/>
<path d="M24.875 66.7092V55.7979H33.3883V58.4888H28.4183V60.2373H32.3937V62.8556H28.4183V66.7092H24.875Z" fill="#005192"/>
<path d="M45.408 59.9705H42.0183C41.9545 59.4283 41.7573 58.9992 41.4297 58.6918C41.0991 58.3903 40.6844 58.2424 40.1741 58.2424C39.5391 58.2424 39.0229 58.4888 38.6257 58.976C38.2255 59.4689 38.0255 60.2663 38.0255 61.3623C38.0255 62.1279 38.1154 62.7019 38.2807 63.0934C38.4517 63.4964 38.6924 63.7864 38.9911 63.9807C39.2984 64.1749 39.6725 64.2649 40.1335 64.2649C40.6845 64.2649 41.1252 64.1257 41.4471 63.8067C41.7776 63.508 41.969 63.0615 42.0328 62.4642H45.4834C45.408 63.1427 45.2716 63.7111 45.0745 64.175C44.886 64.636 44.5497 65.0941 44.0944 65.5552C43.6334 66.022 43.0825 66.3816 42.4475 66.6309C41.8124 66.8832 41.0788 67.0022 40.2379 67.0022C39.4086 67.0022 38.6344 66.8833 37.9356 66.6397C37.2281 66.3903 36.6308 66.0365 36.1552 65.5929C35.671 65.1318 35.2941 64.6157 35.0244 64.0329C34.6359 63.2123 34.4531 62.3106 34.4531 61.3044C34.4531 60.4635 34.5894 59.666 34.8649 58.9353C35.1403 58.2104 35.5202 57.5928 36.0044 57.094C36.4916 56.5982 37.0222 56.2271 37.6137 55.9777C38.3618 55.6588 39.1854 55.5051 40.0988 55.5051C40.8933 55.5051 41.6297 55.621 42.3256 55.8559C43.0186 56.0908 43.587 56.433 44.0306 56.8882C44.4801 57.3435 44.8251 57.8654 45.0658 58.4598C45.2398 58.8744 45.35 59.3761 45.408 59.9705Z" fill="#005192"/>
<path d="M56.9102 58.2539C57.4176 58.2539 57.7453 58.2771 57.9077 58.3235C58.1164 58.3844 58.2904 58.5033 58.4151 58.6599C58.5426 58.8222 58.6094 59.0107 58.6094 59.2282C58.6094 59.5066 58.4992 59.7356 58.2875 59.9096C58.0614 60.0923 57.6757 60.1764 57.1219 60.1764H55.7706V58.2539H56.9102ZM57.812 66.7092C58.6616 66.7092 59.2589 66.6686 59.6098 66.5932C59.9548 66.512 60.3115 66.3845 60.6739 66.2163C61.0277 66.0308 61.3002 65.8568 61.48 65.6654C61.7583 65.4073 61.9642 65.0941 62.115 64.7171C62.2658 64.3373 62.3412 63.9082 62.3412 63.4471C62.3412 62.7889 62.1788 62.2467 61.8483 61.8059C61.5177 61.3623 61.074 61.0694 60.5144 60.91C61.4626 60.3126 61.9353 59.5414 61.9353 58.6019C61.9353 57.6305 61.5177 56.8882 60.6913 56.3836C60.0534 55.9951 59.0588 55.7979 57.7105 55.7979H52.2969V66.7092H57.812ZM57.235 62.1394C57.9454 62.1394 58.4064 62.2264 58.6384 62.4091C58.853 62.5859 58.9689 62.8295 58.9689 63.1572C58.9689 63.4877 58.8529 63.7487 58.618 63.9314C58.3948 64.1256 57.928 64.2068 57.235 64.2068H55.7706V62.1394H57.235Z" fill="#005192"/>
<path d="M70.2209 63.0412H67.9389L69.064 59.0716L70.2209 63.0412ZM66.8661 66.7092L67.2807 65.2768H70.853L71.2706 66.7092H74.84L70.9255 55.7979H67.2807L63.3633 66.7092H66.8661Z" fill="#005192"/>
<path d="M76.3477 66.7092V55.7979H79.691L83.4634 61.6407V55.7979H86.9024V66.7092H83.4866L79.7953 61.0114V66.7092H76.3477Z" fill="#005192"/>
<path d="M89.293 66.7092V55.7979H92.7696V59.3964L96.0144 55.7979H100.23L96.2318 59.9067L100.645 66.7092H96.3478L93.7236 62.3627L92.7696 63.305V66.7092H89.293Z" fill="#005192"/>
<path d="M28.7148 5.17583e-07H72.4648V43.75H28.7148V5.17583e-07Z" fill="#ED232A"/>
<path d="M36.3672 7.65731H64.8078V36.0979H36.3672V7.65731Z" fill="white"/>
<path d="M48.4023 5.17583e-07H52.7756V43.75H48.4023V5.17583e-07Z" fill="white"/>
<path d="M28.7148 19.6934H72.4648V24.0666H28.7148V19.6934Z" fill="white"/>
<path d="M44.0312 15.3148H57.1567V28.4404H44.0312V15.3148Z" fill="#005192"/>
</svg>
