<svg width="1440" height="1042" viewBox="0 0 1440 1042" fill="none" xmlns="http://www.w3.org/2000/svg">
<path d="M195.5 0L195.5 1042M245.5 0L245.5 1042M295.5 0L295.5 1042M345.5 0L345.5 1042M395.5 0L395.5 1042M445.5 0L445.5 1042M495.5 0L495.5 1042M545.5 0L545.5 1042M595.5 0L595.5 1042M645.5 0L645.5 1042M695.5 0L695.5 1042M745.5 0L745.5 1042M795.5 0L795.5 1042M845.5 0L845.5 1042M895.5 0L895.5 1042M945.5 0L945.5 1042M995.5 0L995.5 1042M1045.5 0L1045.5 1042M1095.5 0V1042M1145.5 0V1042M1195.5 0V1042M1245.5 0V1042M1295.5 0V1042M1345.5 0V1042M1395.5 0V1042M145.5 0L145.5 1042M95.5001 0L95.5 1042M45.5001 0L45.5 1042M1440 145.88L3.93402e-05 145.88M1440 194.345L3.71547e-05 194.345M1440 242.81L3.49691e-05 242.81M1440 291.275L3.27835e-05 291.275M1440 339.741L3.0598e-05 339.74M1440 388.206L2.84124e-05 388.206M1440 436.671L2.62268e-05 436.671M1440 485.136L2.40413e-05 485.136M1440 533.601L2.18557e-05 533.601M1440 582.066L1.96701e-05 582.066M1440 630.531L1.74846e-05 630.531M1440 678.996L1.5299e-05 678.996M1440 727.461L1.31134e-05 727.461M1440 775.927L1.09278e-05 775.926M1440 824.392L8.74227e-06 824.392M1440 872.857L6.55671e-06 872.857M1440 921.322L4.37114e-06 921.322M1440 969.787L2.18557e-06 969.787M1440 1018.25L0 1018.25M1440 97.4149L4.15258e-05 97.4148M1440 48.9498L4.37114e-05 48.9497M1440 0.484697L4.5897e-05 0.484575" stroke="url(#paint0_linear_1556_6421)" stroke-opacity="0.2"/>
<defs>
<linearGradient id="paint0_linear_1556_6421" x1="0" y1="0" x2="1456.76" y2="1018.02" gradientUnits="userSpaceOnUse">
<stop stop-color="#EF7065" stop-opacity="0.15"/>
<stop offset="0.52584" stop-color="#EF7065" stop-opacity="0.35"/>
<stop offset="1" stop-color="#EF7065" stop-opacity="0.15"/>
</linearGradient>
</defs>
</svg>
