<svg width="48" height="47" viewBox="0 0 48 47" fill="none" xmlns="http://www.w3.org/2000/svg">
<path d="M32.2971 42.9784C32.2971 43.31 32.1655 43.6279 31.931 43.8623C31.6966 44.0968 31.3787 44.2284 31.0471 44.2284H18.5471C18.2156 44.2284 17.8977 44.0968 17.6633 43.8623C17.4288 43.6279 17.2971 43.31 17.2971 42.9784C17.2971 42.6469 17.4288 42.329 17.6633 42.0946C17.8977 41.8601 18.2156 41.7284 18.5471 41.7284H31.0471C31.3787 41.7284 31.6966 41.8601 31.931 42.0946C32.1655 42.329 32.2971 42.6469 32.2971 42.9784ZM38.5471 22.9784C38.5513 25.0612 38.0806 27.1175 37.1709 28.991C36.2612 30.8646 34.9364 32.5062 33.2971 33.7909C32.9876 34.0247 32.7362 34.3268 32.5627 34.6737C32.3892 35.0207 32.2984 35.4031 32.2971 35.7909V36.7284C32.2971 37.3915 32.0338 38.0274 31.5649 38.4962C31.0961 38.9651 30.4602 39.2284 29.7971 39.2284H19.7971C19.1341 39.2284 18.4982 38.9651 18.0294 38.4962C17.5605 38.0274 17.2971 37.3915 17.2971 36.7284V35.7909C17.2961 35.4085 17.2084 35.0312 17.0406 34.6876C16.8728 34.3439 16.6293 34.0427 16.3284 33.8066C14.6926 32.5307 13.3674 30.9004 12.4527 29.0384C11.5379 27.1764 11.0573 25.1311 11.0471 23.0566C11.0003 15.6035 17.0315 9.40032 24.469 9.22845C26.3027 9.18254 28.127 9.50439 29.8342 10.175C31.5415 10.8456 33.0971 11.8514 34.4093 13.133C35.7215 14.4146 36.7637 15.9461 37.4744 17.6371C38.185 19.328 38.5498 21.1442 38.5471 22.9784ZM30.6878 23.3378C30.4508 23.1031 30.1307 22.9714 29.7971 22.9714C29.4636 22.9714 29.1435 23.1031 28.9065 23.3378L24.7971 27.4628L20.6878 23.3378C20.4449 23.1385 20.1366 23.0366 19.8228 23.052C19.5089 23.0675 19.2121 23.199 18.9899 23.4212C18.7677 23.6434 18.6362 23.9402 18.6207 24.2541C18.6053 24.5679 18.7072 24.8762 18.9065 25.1191L23.5471 29.7441V35.4784C23.5471 35.81 23.6788 36.1279 23.9133 36.3623C24.1477 36.5968 24.4656 36.7284 24.7971 36.7284C25.1287 36.7284 25.4466 36.5968 25.681 36.3623C25.9155 36.1279 26.0471 35.81 26.0471 35.4784V29.7441L30.6878 25.1191C30.9225 24.8821 31.0542 24.562 31.0542 24.2284C31.0542 23.8949 30.9225 23.5748 30.6878 23.3378Z" fill="white"/>
<path d="M5.92187 11.291H7.20312C7.54293 11.291 7.86882 11.426 8.10911 11.6663C8.34939 11.9066 8.48437 12.2325 8.48437 12.5723C8.48437 12.9121 8.34939 13.238 8.10911 13.4782C7.86882 13.7185 7.54293 13.8535 7.20312 13.8535H5.92187V15.1348C5.92187 15.4746 5.78689 15.8005 5.54661 16.0407C5.30632 16.281 4.98043 16.416 4.64062 16.416C4.30081 16.416 3.97493 16.281 3.73464 16.0407C3.49436 15.8005 3.35937 15.4746 3.35937 15.1348V13.8535H2.07812C1.73832 13.8535 1.41242 13.7185 1.17214 13.4782C0.931861 13.238 0.796875 12.9121 0.796875 12.5723C0.796875 12.2325 0.931861 11.9066 1.17214 11.6663C1.41242 11.426 1.73832 11.291 2.07812 11.291H3.35937V10.0098C3.35937 9.66996 3.49436 9.34407 3.73464 9.10379C3.97493 8.8635 4.30081 8.72852 4.64062 8.72852C4.98043 8.72852 5.30632 8.8635 5.54661 9.10379C5.78689 9.34407 5.92187 9.66996 5.92187 10.0098V11.291Z" fill="white" fill-opacity="0.5"/>
<path d="M40.6406 7.13477H38.0781C37.7383 7.13477 37.4124 6.99978 37.1721 6.7595C36.9319 6.51921 36.7969 6.19332 36.7969 5.85352C36.7969 5.51371 36.9319 5.18782 37.1721 4.94754C37.4124 4.70725 37.7383 4.57227 38.0781 4.57227H40.6406V2.00977C40.6406 1.66996 40.7756 1.34407 41.0159 1.10379C41.2562 0.863504 41.5821 0.728516 41.9219 0.728516C42.2617 0.728516 42.5876 0.863504 42.8279 1.10379C43.0681 1.34407 43.2031 1.66996 43.2031 2.00977V4.57227H45.7656C46.1054 4.57227 46.4313 4.70725 46.6716 4.94754C46.9119 5.18782 47.0469 5.51371 47.0469 5.85352C47.0469 6.19332 46.9119 6.51921 46.6716 6.7595C46.4313 6.99978 46.1054 7.13477 45.7656 7.13477H43.2031V9.69727C43.2031 10.0371 43.0681 10.363 42.8279 10.6032C42.5876 10.8435 42.2617 10.9785 41.9219 10.9785C41.5821 10.9785 41.2562 10.8435 41.0159 10.6032C40.7756 10.363 40.6406 10.0371 40.6406 9.69727V7.13477Z" fill="white" fill-opacity="0.5"/>
</svg>
