<svg width="45" height="46" viewBox="0 0 45 46" fill="none" xmlns="http://www.w3.org/2000/svg">
<path d="M40.2059 13.092L31.9468 4.83296C31.6737 4.55699 31.3485 4.33792 30.9901 4.1884C30.6317 4.03889 30.2473 3.96191 29.859 3.96191C29.4707 3.96191 29.0862 4.03889 28.7278 4.1884C28.3695 4.33792 28.0443 4.55699 27.7711 4.83296L21.1625 11.4231L3.8684 28.7357C3.59291 29.0091 3.37433 29.3343 3.22527 29.6927C3.07622 30.0511 2.99966 30.4354 3 30.8235V39.0826C3 39.8666 3.31146 40.6186 3.86587 41.173C4.42028 41.7274 5.17221 42.0388 5.95626 42.0388H14.2153C14.6034 42.0392 14.9878 41.9626 15.3461 41.8136C15.7045 41.6645 16.0298 41.4459 16.3032 41.1704L40.2059 17.2677C40.7543 16.7112 41.0617 15.9612 41.0617 15.1799C41.0617 14.3985 40.7543 13.6486 40.2059 13.092ZM6.56599 30.2138L5.95626 29.6927L9.65158 33.2994L6.56599 30.2138ZM5.95626 33.7798L11.259 39.0826H5.95626V33.7798Z" fill="#F57E70"/>
<rect x="17.125" y="3.20097" width="35.1756" height="20.4349" transform="rotate(45 17.125 3.20097)" fill="#FBC2BA" stroke="white" stroke-width="1.73077"/>
<path d="M16.468 5.71087L39.7859 29.0288C40.3351 29.578 40.3351 30.4684 39.7859 31.0176L30.5246 40.2789C29.9754 40.828 29.085 40.828 28.5359 40.2789L5.21791 16.9609C4.66873 16.4117 4.66873 15.5214 5.21791 14.9722L14.4792 5.71087C15.0284 5.1617 15.9188 5.1617 16.468 5.71087Z" stroke="#F57E70" stroke-width="2.8125" stroke-linecap="round" stroke-linejoin="round"/>
<path d="M21.7969 11.0469L16.1719 16.6719" stroke="#F57E70" stroke-width="2.8125" stroke-linecap="round" stroke-linejoin="round"/>
<path d="M28.125 17.375L22.5 23" stroke="#F57E70" stroke-width="2.8125" stroke-linecap="round" stroke-linejoin="round"/>
<path d="M34.4531 23.7031L28.8281 29.3281" stroke="#F57E70" stroke-width="2.8125" stroke-linecap="round" stroke-linejoin="round"/>
</svg>
