<svg width="41" height="38" viewBox="0 0 41 38" fill="none" xmlns="http://www.w3.org/2000/svg">
<path d="M0.0078125 1.58594C0.226562 1.07031 0.453125 0.539062 1 0.296875C1.35938 0.140625 1.76562 0.015625 2.14844 0.015625C10.3906 1.16415e-09 18.6328 0.015625 26.8672 0C28.6406 0 29.5234 1.75781 28.7266 3.07031C28.3828 3.63281 27.875 3.96875 27.1953 4.01562C26.9766 4.03125 26.75 4.03906 26.5312 4.03906C19.2188 4.03906 11.8984 4.03906 4.58594 4.03906C4.42188 4.03906 4.25781 4.03906 4.07031 4.03906C4.07031 13.7266 4.07031 23.3672 4.07031 33.0312C13.7344 33.0312 23.375 33.0312 33.0469 33.0312C33.0469 32.8594 33.0469 32.7031 33.0469 32.5469C33.0469 27.7656 33.0469 22.9922 33.0469 18.2109C33.0469 16.9297 33.9844 16.0469 35.2422 16.125C36.2891 16.1875 37.0703 17.0859 37.0859 18.2734C37.1016 19.2734 37.0859 20.2812 37.0859 21.2812C37.0859 25.7891 37.0859 30.2891 37.0859 34.7969C37.0859 35.6953 36.8047 36.4531 35.9531 36.8516C35.625 37.0078 35.2266 37.0781 34.8672 37.0781C23.9844 37.0859 13.1016 37.0859 2.21875 37.0937C1.07031 37.0937 0.382812 36.5312 0 35.5C0.0078125 24.1875 0.0078125 12.8906 0.0078125 1.58594Z" fill="white"/>
<path d="M40.0073 5.02334C39.8198 5.62491 39.4135 6.07022 38.976 6.50772C32.687 12.789 26.3979 19.078 20.1167 25.3671C19.4604 26.0233 18.726 26.3202 17.8276 26.0155C17.5229 25.9062 17.2182 25.703 16.9917 25.4687C13.7885 22.2812 10.5932 19.0858 7.40573 15.8905C6.71041 15.1952 6.53854 14.3358 6.91354 13.539C7.27291 12.7733 8.03073 12.3202 8.90573 12.3749C9.48385 12.4062 9.92916 12.703 10.3276 13.1015C12.937 15.7187 15.5542 18.328 18.1635 20.9452C18.2651 21.0468 18.351 21.164 18.5385 21.3749C18.6635 21.1874 18.7417 21.0312 18.8589 20.914C24.7026 15.0624 30.5464 9.21866 36.3901 3.37491C37.226 2.53897 38.187 2.38272 39.0698 2.92178C39.5464 3.21084 39.7885 3.67959 40.0073 4.16397C40.0073 4.45303 40.0073 4.73428 40.0073 5.02334Z" fill="white"/>
</svg>
