<svg width="49" height="48" viewBox="0 0 49 48" fill="none" xmlns="http://www.w3.org/2000/svg">
<path d="M35.2929 3.90625H19.6679C19.2535 3.90625 18.8561 4.07087 18.5631 4.3639C18.27 4.65692 18.1054 5.05435 18.1054 5.46875V11.2012C18.1054 19.9316 25.5078 22.832 26.9921 23.3203C27.3093 23.4247 27.6515 23.4247 27.9687 23.3203C29.4531 22.832 36.8554 19.9316 36.8554 11.2012V5.46875C36.8554 5.05435 36.6908 4.65692 36.3978 4.3639C36.1047 4.07087 35.7073 3.90625 35.2929 3.90625ZM32.3144 10.7227L26.5917 16.1914C26.4438 16.3306 26.248 16.4075 26.0449 16.4063C25.8447 16.407 25.6521 16.33 25.5078 16.1914L22.6464 13.457C22.5671 13.3878 22.5025 13.3032 22.4567 13.2084C22.4108 13.1136 22.3846 13.0105 22.3797 12.9053C22.3747 12.8001 22.391 12.6949 22.4277 12.5962C22.4644 12.4975 22.5207 12.4072 22.5931 12.3308C22.6656 12.2543 22.7528 12.1934 22.8494 12.1515C22.9461 12.1096 23.0502 12.0877 23.1555 12.0871C23.2608 12.0865 23.3652 12.1072 23.4623 12.1479C23.5594 12.1887 23.6473 12.2486 23.7206 12.3242L26.0449 14.541L31.2402 9.58984C31.3921 9.45731 31.5893 9.38863 31.7907 9.39816C31.9921 9.40769 32.182 9.49468 32.3207 9.64097C32.4594 9.78725 32.5362 9.98148 32.535 10.1831C32.5338 10.3847 32.4548 10.578 32.3144 10.7227Z" fill="#F88777"/>
<path fill-rule="evenodd" clip-rule="evenodd" d="M28.5 39C34.8513 39 40 35.6421 40 31.5C40 31.3387 39.9922 31.1786 39.9768 31.0199L40 31L46 29L47.5 31L45 34L38 41L29 42.5L17.5 41H9.5L7.5 32L16 29.5L17.3159 29.7467C17.1094 30.3092 17 30.8963 17 31.5C17 35.6421 22.1487 39 28.5 39Z" fill="#FBC2BA"/>
<path d="M18.9804 35.5C23.3145 37.5003 28.6443 37.0925 31.5537 36.7081C32.3221 36.6066 32.8181 35.8509 32.6302 35.099V35.099C32.5353 34.7195 32.2765 34.4018 31.9241 34.2321L26.9992 31.8609C21.8773 29.3948 15.97 29.1289 10.6472 31.1249L6.98041 32.5L9.48041 41.5V41.5C10.8087 41.1679 12.1728 41 13.542 41H15.4804C15.9257 41 16.3172 41.0245 16.6703 41.0696C24.7927 42.1067 32.8966 43.8451 39.5479 39.0692C44.9279 35.2062 48.242 30.7616 46.9804 29.5C45.3804 27.9 39.6471 31.8333 36.9804 34" stroke="#F88777" stroke-width="3" stroke-linecap="round"/>
<rect y="30.0278" width="8.0134" height="18.4229" rx="2" transform="rotate(-14.659 0 30.0278)" fill="#F88777"/>
<rect x="2.97797" y="31.7778" width="3.12049" height="3.04411" rx="1.52205" transform="rotate(-14.659 2.97797 31.7778)" fill="white"/>
</svg>
