<svg width="47" height="46" viewBox="0 0 47 46" fill="none" xmlns="http://www.w3.org/2000/svg">
<path d="M31.5003 42.2499C31.5003 42.5815 31.3686 42.8994 31.1342 43.1338C30.8997 43.3682 30.5818 43.4999 30.2503 43.4999H17.7503C17.4188 43.4999 17.1008 43.3682 16.8664 43.1338C16.632 42.8994 16.5003 42.5815 16.5003 42.2499C16.5003 41.9184 16.632 41.6005 16.8664 41.3661C17.1008 41.1316 17.4188 40.9999 17.7503 40.9999H30.2503C30.5818 40.9999 30.8997 41.1316 31.1342 41.3661C31.3686 41.6005 31.5003 41.9184 31.5003 42.2499ZM37.7503 22.2499C37.7544 24.3327 37.2838 26.389 36.374 28.2625C35.4643 30.1361 34.1395 31.7776 32.5003 33.0624C32.1907 33.2961 31.9393 33.5983 31.7658 33.9452C31.5924 34.2922 31.5015 34.6745 31.5003 35.0624V35.9999C31.5003 36.663 31.2369 37.2989 30.768 37.7677C30.2992 38.2365 29.6633 38.4999 29.0003 38.4999H19.0003C18.3372 38.4999 17.7013 38.2365 17.2325 37.7677C16.7637 37.2989 16.5003 36.663 16.5003 35.9999V35.0624C16.4992 34.68 16.4115 34.3027 16.2437 33.959C16.0759 33.6153 15.8324 33.3141 15.5315 33.0781C13.8957 31.8021 12.5705 30.1719 11.6558 28.3098C10.741 26.4478 10.2605 24.4026 10.2503 22.3281C10.2034 14.8749 16.2346 8.67181 23.6721 8.49993C25.5058 8.45402 27.3301 8.77587 29.0373 9.44649C30.7446 10.1171 32.3002 11.1229 33.6124 12.4045C34.9246 13.6861 35.9668 15.2176 36.6775 16.9086C37.3882 18.5995 37.7529 20.4157 37.7503 22.2499ZM29.8909 22.6093C29.6539 22.3746 29.3338 22.2429 29.0003 22.2429C28.6667 22.2429 28.3466 22.3746 28.1096 22.6093L24.0003 26.7343L19.8909 22.6093C19.648 22.41 19.3397 22.3081 19.0259 22.3235C18.7121 22.3389 18.4152 22.4705 18.193 22.6927C17.9709 22.9149 17.8393 23.2117 17.8239 23.5255C17.8085 23.8394 17.9103 24.1477 18.1096 24.3906L22.7503 29.0156V34.7499C22.7503 35.0815 22.882 35.3994 23.1164 35.6338C23.3508 35.8682 23.6688 35.9999 24.0003 35.9999C24.3318 35.9999 24.6497 35.8682 24.8842 35.6338C25.1186 35.3994 25.2503 35.0815 25.2503 34.7499V29.0156L29.8909 24.3906C30.1256 24.1536 30.2573 23.8335 30.2573 23.4999C30.2573 23.1664 30.1256 22.8463 29.8909 22.6093Z" fill="#F88776"/>
<path d="M5.125 10.5625H6.40625C6.74606 10.5625 7.07195 10.6975 7.31223 10.9378C7.55251 11.1781 7.6875 11.5039 7.6875 11.8438C7.6875 12.1836 7.55251 12.5094 7.31223 12.7497C7.07195 12.99 6.74606 13.125 6.40625 13.125H5.125V14.4062C5.125 14.7461 4.99001 15.0719 4.74973 15.3122C4.50945 15.5525 4.18356 15.6875 3.84375 15.6875C3.50394 15.6875 3.17805 15.5525 2.93777 15.3122C2.69749 15.0719 2.5625 14.7461 2.5625 14.4062V13.125H1.28125C0.941441 13.125 0.615548 12.99 0.375267 12.7497C0.134986 12.5094 0 12.1836 0 11.8438C0 11.5039 0.134986 11.1781 0.375267 10.9378C0.615548 10.6975 0.941441 10.5625 1.28125 10.5625H2.5625V9.28125C2.5625 8.94144 2.69749 8.61555 2.93777 8.37527C3.17805 8.13499 3.50394 8 3.84375 8C4.18356 8 4.50945 8.13499 4.74973 8.37527C4.99001 8.61555 5.125 8.94144 5.125 9.28125V10.5625Z" fill="#FBC2BA"/>
<path d="M39.8438 6.40625H37.2812C36.9414 6.40625 36.6155 6.27126 36.3753 6.03098C36.135 5.7907 36 5.46481 36 5.125C36 4.78519 36.135 4.4593 36.3753 4.21902C36.6155 3.97874 36.9414 3.84375 37.2812 3.84375H39.8438V1.28125C39.8438 0.941441 39.9787 0.61555 40.219 0.375269C40.4593 0.134988 40.7852 0 41.125 0C41.4648 0 41.7907 0.134988 42.031 0.375269C42.2713 0.61555 42.4062 0.941441 42.4062 1.28125V3.84375H44.9688C45.3086 3.84375 45.6344 3.97874 45.8747 4.21902C46.115 4.4593 46.25 4.78519 46.25 5.125C46.25 5.46481 46.115 5.7907 45.8747 6.03098C45.6344 6.27126 45.3086 6.40625 44.9688 6.40625H42.4062V8.96875C42.4062 9.30856 42.2713 9.63445 42.031 9.87473C41.7907 10.115 41.4648 10.25 41.125 10.25C40.7852 10.25 40.4593 10.115 40.219 9.87473C39.9787 9.63445 39.8438 9.30856 39.8438 8.96875V6.40625Z" fill="#FBC2BA"/>
</svg>
