<svg width="50" height="49" viewBox="0 0 50 49" fill="none" xmlns="http://www.w3.org/2000/svg">
<path d="M36.0898 4.63477H20.4648C20.0504 4.63477 19.653 4.79939 19.3599 5.09241C19.0669 5.38544 18.9023 5.78286 18.9023 6.19727V11.9297C18.9023 20.6602 26.3046 23.5605 27.789 24.0488C28.1062 24.1532 28.4484 24.1532 28.7656 24.0488C30.2499 23.5605 37.6523 20.6602 37.6523 11.9297V6.19727C37.6523 5.78286 37.4877 5.38544 37.1946 5.09241C36.9016 4.79939 36.5042 4.63477 36.0898 4.63477ZM33.1113 11.4512L27.3886 16.9199C27.2407 17.0591 27.0449 17.136 26.8417 17.1348C26.6416 17.1355 26.449 17.0585 26.3046 16.9199L23.4433 14.1855C23.3639 14.1163 23.2994 14.0317 23.2535 13.9369C23.2077 13.8421 23.1815 13.739 23.1765 13.6338C23.1716 13.5286 23.1879 13.4234 23.2246 13.3247C23.2613 13.226 23.3175 13.1357 23.39 13.0593C23.4625 12.9829 23.5497 12.9219 23.6463 12.88C23.7429 12.8381 23.847 12.8162 23.9524 12.8156C24.0577 12.815 24.162 12.8357 24.2592 12.8764C24.3563 12.9172 24.4442 12.9772 24.5175 13.0527L26.8417 15.2695L32.037 10.3184C32.189 10.1858 32.3862 10.1171 32.5876 10.1267C32.7889 10.1362 32.9788 10.2232 33.1175 10.3695C33.2563 10.5158 33.3331 10.71 33.3319 10.9116C33.3307 11.1132 33.2517 11.3065 33.1113 11.4512Z" fill="white"/>
<path fill-rule="evenodd" clip-rule="evenodd" d="M29.2969 39.7285C35.6481 39.7285 40.7969 36.3707 40.7969 32.2285C40.7969 32.0672 40.7891 31.9071 40.7737 31.7484L40.7969 31.7285L46.7969 29.7285L48.2969 31.7285L45.7969 34.7285L38.7969 41.7285L29.7969 43.2285L18.2969 41.7285H10.2969L8.29688 32.7285L16.7969 30.2285L18.1128 30.4753C17.9063 31.0377 17.7969 31.6248 17.7969 32.2285C17.7969 36.3707 22.9456 39.7285 29.2969 39.7285Z" fill="#808080"/>
<path d="M19.7773 36.2285C24.1114 38.2289 29.4412 37.821 32.3506 37.4366C33.1189 37.3352 33.615 36.5795 33.427 35.8275V35.8275C33.3322 35.448 33.0734 35.1304 32.7209 34.9606L27.7961 32.5894C22.6741 30.1233 16.7669 29.8574 11.4441 31.8535L7.77728 33.2285L10.2773 42.2285V42.2285C11.6056 41.8964 12.9696 41.7285 14.3388 41.7285H16.2773C16.7226 41.7285 17.114 41.753 17.4671 41.7981C25.5895 42.8352 33.6934 44.5736 40.3447 39.7978C45.7247 35.9347 49.0388 31.4901 47.7773 30.2285C46.1773 28.6285 40.4439 32.5618 37.7773 34.7285" stroke="white" stroke-width="3" stroke-linecap="round"/>
<rect x="0.796875" y="30.7563" width="8.0134" height="18.4229" rx="2" transform="rotate(-14.659 0.796875 30.7563)" fill="white"/>
<rect x="3.77484" y="32.5063" width="3.12049" height="3.04411" rx="1.52205" transform="rotate(-14.659 3.77484 32.5063)" fill="white"/>
</svg>
