<svg width="149" height="82" viewBox="0 0 149 82" fill="none" xmlns="http://www.w3.org/2000/svg">
<path d="M50.2492 25.3669C51.4526 25.4722 52.6538 25.6079 53.8593 25.6752C55.2884 25.7544 56.7099 25.6752 58.0955 25.2638C59.1014 24.9642 60.0194 24.4986 60.6683 23.6563C60.8766 23.3861 61.022 22.9649 60.9895 22.6328C60.9233 21.9566 60.7594 21.2815 60.5619 20.627C59.2522 16.2865 62.412 13.5556 65.4687 13.0227C68.775 12.4463 71.8046 13.1974 74.5987 15.0035C74.7593 15.1066 74.9155 15.2162 75.202 15.4084C75.202 15.086 75.202 14.9015 75.202 14.7159C75.1857 11.8667 75.4331 9.05225 76.3565 6.33658C77.0662 4.24935 78.0948 2.36943 79.9786 1.08757C80.826 0.511224 81.7581 0.16281 82.9474 0C82.802 0.471064 82.7466 0.879176 82.5611 1.21348C81.7147 2.74173 80.7392 4.20702 79.9807 5.77651C78.7101 8.40535 78.441 11.1905 79.2787 14.0006C79.6726 15.3237 80.3052 16.5773 80.8358 17.8592C81.2069 18.7579 81.5877 19.6534 81.9773 20.5803C80.4875 21.3401 79.1821 22.3484 77.9711 23.487C76.9219 24.4726 76.5931 25.7045 76.7884 27.0862C76.9208 28.0283 77.4351 28.8044 78.0623 29.4925C78.5723 30.0515 79.1289 30.5693 79.665 31.1044C80.01 31.4484 80.3572 31.7903 80.6991 32.1377C81.3197 32.7672 81.7212 33.4586 81.5422 34.4083C81.4358 34.9716 81.4966 35.5643 81.4152 36.1341C81.3371 36.6801 81.489 37.1457 81.8069 37.5473C82.4884 38.4091 83.1904 39.2557 83.9098 40.0871C84.8897 41.2192 85.9476 42.2873 86.871 43.4617C88.0028 44.902 88.6788 46.5344 88.4867 48.4306C88.3392 49.8851 87.7554 51.1007 86.5737 51.9907C86.041 52.3923 85.493 52.7744 84.9385 53.1456C84.7996 53.2379 84.6097 53.2954 84.4426 53.2965C83.2512 53.3095 82.0598 53.3128 80.8694 53.2911C80.7186 53.2878 80.4918 53.1521 80.4332 53.0197C79.7767 51.5143 79.1061 50.0012 79.0215 48.3319C78.9792 47.4885 79.015 46.6332 79.1116 45.7942C79.3047 44.1238 78.8164 42.7344 77.5729 41.6067C77.1313 41.2062 76.7113 40.7829 76.261 40.3943C74.6616 39.0148 74.0116 37.2499 74.1679 35.179C74.2655 33.8841 74.4348 32.5957 74.5607 31.303C74.6584 30.299 74.5596 29.3167 74.1256 28.3952C74.0572 28.2498 73.851 28.1694 73.7089 28.0598C73.6145 28.1944 73.4713 28.317 73.4344 28.4657C72.7377 31.3171 72.2646 34.1956 72.4502 37.1457C72.563 38.9269 73.0025 40.5843 74.1885 41.9975C74.9643 42.9222 75.6621 43.9143 76.3663 44.8966C76.5084 45.0952 76.5952 45.3839 76.5898 45.6281C76.5616 46.9458 76.5204 48.2635 76.4336 49.5779C76.3967 50.1434 76.554 50.5971 76.9034 51.0193C77.2485 51.4361 77.587 51.8605 77.9028 52.299C78.1089 52.5855 78.2728 52.9036 78.4941 53.2726H74.2243C73.8163 50.8934 72.6281 48.8203 71.5094 46.7287C70.6641 45.1484 70.4786 43.5702 71.1058 41.8857C71.2924 41.3842 71.3835 40.848 71.5148 40.3411C70.7065 39.9439 70.6544 39.9612 70.2312 40.6548C69.2915 42.1907 69.0528 43.8361 69.5986 45.5413C69.9773 46.7222 70.5155 47.8521 70.9441 49.0189C71.2414 49.8286 71.5376 50.6481 71.7134 51.4893C71.8306 52.0526 71.7362 52.6594 71.7362 53.3063H71.1101C67.6443 53.3063 64.1796 53.3008 60.7139 53.3149C60.3319 53.316 60.1626 53.2194 60.0313 52.8352C59.8111 52.1905 59.4627 51.5913 59.2034 50.9585C58.8388 50.0674 58.5068 49.1633 58.1118 48.1376C59.0157 48.27 59.7177 48.4317 60.4252 48.4632C61.4474 48.5077 62.4739 48.4621 63.4982 48.4447C63.891 48.4382 64.1861 48.2581 64.3381 47.8814C64.5876 47.2649 64.8578 46.6549 65.0792 46.0275C65.2224 45.6216 65.3287 45.195 65.3917 44.7685C65.6868 42.767 66.4648 41.0282 67.933 39.5835C69.4304 38.1117 69.5085 36.2915 68.9215 34.4018C68.5048 33.0603 67.6975 31.9597 66.6254 31.0544C65.5957 30.185 64.516 29.8258 63.1 30.1373C60.5326 30.7017 57.9317 31.1641 55.321 31.4582C53.6521 31.6471 51.9398 31.4582 50.2471 31.4376C50.2471 29.4155 50.2471 27.3934 50.2471 25.3713L50.2492 25.3669ZM82.4384 51.1702C83.5116 51.3894 84.244 51.0985 84.6802 50.1792C84.7573 50.0175 84.8669 49.871 84.9569 49.7147C86.3708 47.266 86.2124 45.4121 84.3439 43.2858C83.5235 42.3524 82.624 41.4884 81.7679 40.5864C80.3985 39.1428 79.2613 37.5571 78.7925 35.5806C78.6602 35.0237 78.5842 34.4539 78.4822 33.8895C77.9983 33.7006 77.8355 33.9166 77.7823 34.366C77.5414 36.4087 78.0417 38.243 79.3785 39.8049C80.2335 40.8035 81.1863 41.7174 82.0554 42.7051C82.5285 43.2435 82.9994 43.8122 83.3304 44.4418C84.1909 46.0786 84.3775 47.7555 83.3781 49.4335C83.0504 49.9838 82.7672 50.5613 82.4384 51.1713V51.1702Z" fill="#99262B"/>
<path d="M85.5032 19.8787C86.1434 19.6692 86.6936 19.5064 87.2318 19.31C91.7186 17.6699 94.2436 14.1446 94.4498 9.3753C94.5279 7.5681 94.2067 5.81952 93.9637 4.0514C93.8769 3.42295 93.9496 2.77171 93.9496 2.13024C94.006 2.08248 94.0635 2.03472 94.1199 1.98805C94.4194 2.12373 94.7721 2.19753 95.0097 2.40376C97.6714 4.71241 98.4505 7.68207 97.947 11.0609C97.3915 14.7882 95.6803 18.0314 93.6273 21.1204C93.2388 21.7065 92.5737 22.2254 92.4673 22.8495C92.3632 23.4627 92.8254 24.1639 93.0044 24.8358C93.1303 25.3047 93.2247 25.7855 93.2866 26.2674C93.4385 27.4483 93.1227 28.4881 92.2525 29.325C91.8629 29.7005 91.4604 30.0652 91.0393 30.4039C89.3618 31.753 88.5404 33.5266 88.3635 35.6453C88.2865 36.5614 88.2073 37.4839 88.0206 38.3816C87.8882 39.0165 87.5736 39.6135 87.3533 40.1909C86.0816 40.0346 85.6671 39.1924 85.3828 38.2567C85.2428 37.7965 85.5618 37.3884 86.0414 37.3125C86.9551 37.167 86.9583 37.1681 87.1471 36.2596C87.5204 34.4589 88.2843 32.8048 89.0536 31.1528C89.4649 30.2704 89.8674 29.3825 90.3004 28.5109C91.0155 27.0717 90.7518 25.7182 89.8729 24.4841C89.3976 23.8177 88.7596 23.2608 88.1671 22.6834C87.6376 22.1678 87.0408 21.7207 86.5243 21.1931C86.1532 20.8143 85.8645 20.3541 85.5 19.8798L85.5032 19.8787Z" fill="#99262B"/>
<path d="M81.1039 26.6762C82.1011 26.6209 82.8834 26.7511 83.5573 27.2721C83.9891 27.6053 84.2072 28.0569 84.0694 28.6061C83.9327 29.1499 83.7493 29.6806 83.0755 29.8934C83.0223 28.9838 82.5546 28.3825 81.8645 27.8626C81.5401 27.6184 81.3903 27.1419 81.1028 26.6762H81.1039Z" fill="#99262B"/>
<path d="M104.817 74.1428C105.149 74.2471 105.384 74.3123 105.612 74.397C107.202 74.9639 107.964 76.3389 107.632 77.9941C107.339 79.4733 106.478 80.4703 105.077 81.0112C103.67 81.552 102.191 81.6628 100.711 81.7084C98.8998 81.7671 97.0882 81.7215 95.2766 81.7215C95.1789 81.7215 95.0811 81.7084 94.9182 81.6954C95.0876 80.8418 95.2571 80.0142 95.42 79.1801C96.2085 75.2832 97.0035 71.3864 97.7789 67.483C97.8441 67.1441 97.9809 67.0659 98.2937 67.0659C100.288 67.079 102.282 67.0529 104.276 67.092C104.96 67.105 105.657 67.2158 106.316 67.3983C108.635 68.0434 109.424 70.6565 107.893 72.5398C107.384 73.1654 106.726 73.5368 105.97 73.7714C105.618 73.8822 105.26 73.9995 104.81 74.1428H104.817ZM99.1344 79.2843C100.262 79.1475 101.304 79.0693 102.321 78.8738C102.725 78.7956 103.135 78.5023 103.435 78.1961C104.419 77.1925 103.996 75.7328 102.621 75.4917C101.813 75.3549 100.959 75.4657 100.125 75.4787C100.047 75.4787 99.9098 75.596 99.8968 75.6807C99.6427 76.8276 99.4081 77.981 99.1409 79.2778L99.1344 79.2843ZM100.399 73.009C100.77 73.0415 101.063 73.0806 101.35 73.0806C102.419 73.0937 103.455 72.9764 104.289 72.2009C104.712 71.8099 104.973 71.3407 104.817 70.7543C104.654 70.1613 104.276 69.6986 103.644 69.6269C102.901 69.5422 102.138 69.5552 101.389 69.5487C101.304 69.5487 101.161 69.679 101.141 69.7768C100.887 70.8259 100.653 71.8816 100.399 73.0155V73.009Z" fill="#99262B"/>
<path d="M85.4359 81.6694C85.5858 81.0764 85.7096 80.5746 85.8725 79.9229C85.5663 80.1901 85.3643 80.353 85.1753 80.529C84.2565 81.4152 83.1356 81.8779 81.891 81.9561C80.6268 82.0408 79.506 81.5977 78.6914 80.6007C76.2347 77.577 77.8247 71.7252 81.8519 70.7934C83.3702 70.4415 84.8429 70.4415 86.0746 71.6014C86.3808 71.8881 86.6154 72.24 86.9347 72.631C87.1628 71.6014 87.3844 70.6305 87.5994 69.6595C87.8601 68.4865 88.1142 67.3136 88.3944 66.1471C88.427 66.0103 88.5899 65.8018 88.6942 65.8018C89.828 65.7757 90.9619 65.7887 92.1544 65.7887C91.8938 67.0269 91.6526 68.2194 91.3985 69.4054C90.5905 73.2501 89.7889 77.1013 88.9679 80.946C88.7919 81.7867 88.9809 81.6628 88.0686 81.6694C87.2149 81.6759 86.3613 81.6694 85.4294 81.6694H85.4359ZM81.4283 76.6973C81.3762 78.4958 82.2298 79.3365 83.7221 79.141C84.3672 79.0563 84.9016 78.7435 85.3186 78.2417C86.1593 77.2382 86.3548 76.0782 86.1267 74.814C85.9833 74.0386 85.5011 73.5629 84.7778 73.413C83.9567 73.2436 83.1747 73.3934 82.5426 74.019C81.7411 74.8075 81.4935 75.8111 81.4283 76.6908V76.6973Z" fill="#99262B"/>
<path d="M29.6899 72.6898C30.2177 70.3178 30.7195 68.0696 31.2212 65.8149H34.903C34.7075 66.7533 34.5316 67.6461 34.3426 68.5453C33.4629 72.6963 32.5701 76.8473 31.7165 80.9983C31.6057 81.5457 31.3907 81.7086 30.8498 81.6825C29.9831 81.6369 29.1099 81.6695 28.1715 81.6695C28.3149 81.1026 28.4452 80.5878 28.6081 79.9361C28.2041 80.288 27.9174 80.5552 27.6111 80.7898C26.386 81.7477 25.0045 82.2169 23.4601 81.8324C21.6159 81.3828 20.6971 80.0404 20.3909 78.2809C20.0129 76.1109 20.5212 74.1039 21.9613 72.4161C23.3689 70.7674 25.2261 70.3374 27.2918 70.7349C28.165 70.9043 28.8232 71.4777 29.3445 72.188C29.4357 72.3184 29.5269 72.4487 29.6899 72.6768V72.6898ZM28.96 75.8503C28.947 74.3776 28.569 73.7194 27.6372 73.4587C26.8226 73.2307 26.0146 73.348 25.3759 73.954C24.2616 75.0292 23.9619 76.3651 24.2616 77.8443C24.4115 78.5807 25.0045 79.0564 25.7539 79.1411C26.7118 79.2519 27.5068 78.9326 28.1129 78.1897C28.7384 77.4273 28.947 76.528 28.96 75.8438V75.8503Z" fill="#99262B"/>
<path d="M138.253 65.8082H142.052C141.401 68.9231 140.762 72.0054 140.117 75.0811C140.169 75.1202 140.215 75.1593 140.267 75.1984C140.339 75.0746 140.391 74.9378 140.482 74.827C141.57 73.5433 142.665 72.266 143.76 70.9953C143.864 70.878 144.007 70.7216 144.138 70.7216C145.467 70.7021 146.796 70.7086 148.217 70.7086C148.074 70.891 147.989 71.0083 147.898 71.1126C146.614 72.5332 145.337 73.9538 144.046 75.3613C143.825 75.6025 143.786 75.7784 143.936 76.0912C144.737 77.7333 145.513 79.3885 146.295 81.0372C146.386 81.2262 146.471 81.4217 146.601 81.6954C145.76 81.6954 144.998 81.6954 144.229 81.6954C143.668 81.6954 142.991 81.8583 142.587 81.6041C142.202 81.363 142.111 80.6658 141.889 80.1705C141.342 78.9193 140.801 77.6682 140.254 76.417C140.195 76.2737 140.117 76.1433 139.98 75.8696C139.674 77.3358 139.4 78.6456 139.127 79.9555C139.029 80.4377 138.938 80.9264 138.82 81.4021C138.794 81.5129 138.657 81.6758 138.566 81.6758C137.413 81.6954 136.266 81.6888 135.041 81.6888C136.116 76.3584 137.185 71.0931 138.253 65.8017V65.8082Z" fill="#99262B"/>
<path d="M126.765 70.7477C126.648 71.3341 126.524 71.9402 126.4 72.5462C126.446 72.5853 126.485 72.6244 126.53 72.6635C126.713 72.4354 126.863 72.1878 127.071 71.9923C128.322 70.8128 129.776 70.2654 131.503 70.6369C132.975 70.9497 133.907 71.9988 134.09 73.5041C134.259 74.8987 134.005 76.2606 133.744 77.616C133.516 78.8411 133.249 80.0662 132.995 81.2848C132.962 81.4412 132.917 81.5976 132.871 81.7866C131.731 81.7866 130.61 81.7866 129.495 81.7866C129.365 81.7866 129.235 81.7735 129.059 81.7605C129.346 80.3986 129.632 79.0692 129.893 77.7333C130.049 76.9253 130.199 76.1172 130.303 75.3027C130.46 74.0645 129.658 73.3347 128.446 73.5823C127.091 73.856 126.433 74.8596 126.087 76.0521C125.742 77.2316 125.546 78.4566 125.286 79.6622C125.142 80.3334 125.006 81.0046 124.862 81.6953H121.109C121.259 80.9394 121.395 80.2226 121.539 79.5058C122.093 76.7363 122.66 73.9603 123.194 71.1843C123.266 70.8259 123.403 70.7346 123.741 70.7411C124.725 70.7607 125.716 70.7411 126.765 70.7411V70.7477Z" fill="#99262B"/>
<path d="M9.89481 81.5914H6.14784C6.31075 80.7768 6.46063 79.9753 6.62354 79.1803C7.17093 76.5085 7.73134 73.8368 8.26569 71.1585C8.33086 70.8327 8.44816 70.7219 8.77398 70.7284C9.77752 70.7414 10.7811 70.7284 11.7976 70.7284C11.6803 71.2888 11.5435 71.9014 11.3871 72.6442C11.8302 72.2337 12.1495 71.9014 12.5079 71.6146C13.7851 70.572 15.2188 70.2397 16.8088 70.6958C18.2945 71.1194 19.1677 72.3054 19.1091 74.0909C19.07 75.3681 18.8354 76.6388 18.6334 77.903C18.4509 79.0369 18.1968 80.1642 17.9492 81.2851C17.9231 81.4089 17.7406 81.5914 17.6299 81.5979C16.4764 81.6239 15.3295 81.6109 14.1045 81.6109C14.2608 80.7963 14.4107 80.0274 14.5541 79.265C14.7887 78.0399 15.0428 76.8148 15.2579 75.5832C15.3752 74.8859 15.4012 74.1561 14.73 73.6999C14.0849 73.2568 13.3942 73.4458 12.7555 73.7586C11.739 74.2603 11.2828 75.2052 11.0352 76.2283C10.6181 77.9877 10.2728 79.7602 9.8883 81.5848L9.89481 81.5914Z" fill="#99262B"/>
<path d="M39.3794 70.6302C39.0535 72.1681 38.7147 73.7386 38.3954 75.3155C38.2846 75.8629 38.1738 76.4168 38.1543 76.9707C38.1347 77.5311 38.1999 78.1241 38.7799 78.4304C39.4445 78.7823 40.1222 78.7237 40.7413 78.3001C41.5363 77.7592 42.0381 76.9772 42.2922 76.0714C42.6376 74.8529 42.9048 73.6147 43.1915 72.3831C43.3349 71.7771 43.4652 71.1711 43.602 70.5585H47.3229C46.8472 72.8197 46.3781 75.0549 45.9089 77.29C45.6287 78.6064 45.355 79.9292 45.0552 81.2455C45.0226 81.3889 44.8337 81.5974 44.7164 81.5974C43.7324 81.6235 42.7419 81.6104 41.7057 81.6104C41.8296 80.9067 41.9338 80.2681 42.0707 79.4796C41.7839 79.7467 41.5885 79.9227 41.3995 80.1051C40.1809 81.2716 38.7473 81.8125 37.066 81.5257C35.489 81.2586 34.29 79.9357 34.303 78.3261C34.3161 77.1532 34.5181 75.9737 34.7136 74.8073C34.9156 73.5561 35.2219 72.3245 35.4499 71.0798C35.5151 70.741 35.6259 70.6106 35.9843 70.6172C37.1051 70.6367 38.2194 70.6237 39.3663 70.6237L39.3794 70.6302Z" fill="#99262B"/>
<path d="M67.1867 81.5906H63.4853C63.8242 79.8572 64.1565 78.1499 64.4954 76.4491C64.8407 74.6896 65.2122 72.9367 65.538 71.1772C65.6032 70.8254 65.7335 70.7211 66.0789 70.7276C67.0629 70.7472 68.0534 70.7341 69.0699 70.7341C68.9526 71.3011 68.8288 71.9136 68.6855 72.6304C69.0765 72.259 69.3762 71.9527 69.6955 71.6855C70.9662 70.6103 72.4129 70.2519 74.029 70.682C75.4887 71.073 76.4531 72.2785 76.3814 73.9402C76.3097 75.5237 76.0165 77.1007 75.7754 78.6777C75.6451 79.5509 75.4235 80.4176 75.228 81.2843C75.2019 81.4081 75.0586 81.6036 74.9673 81.6036C73.7813 81.6231 72.6019 81.6166 71.3442 81.6166C71.5136 80.8216 71.6765 80.0918 71.8199 79.3554C72.0805 78 72.3282 76.6446 72.5628 75.2891C72.6019 75.0676 72.5888 74.8265 72.5497 74.5984C72.4129 73.6926 71.5853 73.256 70.5752 73.5558C69.2003 73.9598 68.6138 75.0676 68.3075 76.3187C67.8774 78.0521 67.5516 79.8181 67.1736 81.6036L67.1867 81.5906Z" fill="#99262B"/>
<path d="M111.257 73.7253C111.401 72.9238 111.512 72.2266 111.648 71.5358C111.674 71.4055 111.798 71.223 111.909 71.197C113.773 70.7343 115.65 70.3563 117.565 70.806C119.911 71.3599 120.863 72.9564 120.387 75.5109C120.081 77.1595 119.729 78.8017 119.403 80.4438C119.318 80.8609 119.286 81.291 119.221 81.7471H116.099C116.164 81.2193 116.223 80.7175 116.301 80.0919C116.073 80.2939 115.93 80.4178 115.786 80.5416C114.503 81.6559 113.056 82.2619 111.336 81.8905C109.967 81.5972 108.846 80.4634 108.82 79.1861C108.788 77.4919 109.166 76.5535 110.749 75.7845C112.365 74.9961 114.125 74.97 115.871 74.957C116.249 74.957 116.62 74.957 116.992 74.957C117.213 74.0381 116.588 73.1519 115.643 72.9955C114.392 72.7935 113.18 72.9564 112.007 73.4126C111.779 73.4973 111.557 73.6015 111.251 73.7319L111.257 73.7253ZM116.581 76.7881C115.812 76.7881 115.07 76.7425 114.333 76.8076C113.923 76.8402 113.493 76.9901 113.121 77.1921C112.476 77.5375 112.183 78.339 112.404 78.9125C112.652 79.538 113.297 79.8313 114.092 79.6814C115.454 79.4142 116.353 78.3977 116.575 76.7881H116.581Z" fill="#99262B"/>
<path d="M57.2547 70.9365C57.0201 71.6663 56.779 72.3962 56.5575 73.0739C55.4757 72.9371 54.4396 72.7807 53.397 72.6829C53.0842 72.6503 52.7258 72.709 52.4391 72.8393C51.833 73.1065 51.7418 73.719 52.2501 74.1426C52.6085 74.4424 53.0451 74.6639 53.4621 74.879C53.9183 75.107 54.407 75.27 54.8632 75.485C56.4727 76.2539 56.6031 77.7592 56.1534 78.9322C55.5474 80.4962 54.2962 81.226 52.7258 81.4801C50.7904 81.7929 48.9006 81.4541 46.9587 81.037C47.1868 80.1703 47.4083 79.3362 47.6299 78.4891C48.4314 78.6585 49.1873 78.8866 49.9628 78.9713C50.6275 79.043 51.3117 79.0039 51.9764 78.9192C52.6671 78.8345 52.8887 78.2154 52.426 77.6941C52.1654 77.3943 51.8004 77.1662 51.442 76.9773C50.9468 76.7166 50.4124 76.5407 49.9107 76.293C48.3467 75.5306 47.8515 73.8037 48.7703 72.3115C49.3111 71.4318 50.0931 70.8779 51.0641 70.539C52.6932 69.9655 55.5539 70.3565 57.2612 70.9365H57.2547Z" fill="#99262B"/>
<path d="M64.2502 65.8149C63.5986 68.9819 62.9665 72.0903 62.3278 75.1921C61.9173 77.1862 61.4937 79.1802 61.0962 81.1808C61.0311 81.5066 60.9203 81.6174 60.5879 81.6174C59.4541 81.5978 58.3202 81.6108 57.0886 81.6108C58.1769 76.313 59.2521 71.0737 60.3338 65.8149H64.2502Z" fill="#99262B"/>
<path d="M3.27778 65.8149H7.15508C6.07335 71.0867 4.99162 76.326 3.9164 81.5848H0C1.09477 76.3195 2.18302 71.0933 3.27778 65.8149Z" fill="#99262B"/>
</svg>
