<svg width="1440" height="425" viewBox="0 0 1440 425" fill="none" xmlns="http://www.w3.org/2000/svg">
<path d="M195.774 -162L195.773 862M245.774 -162L245.773 862M295.774 -162L295.773 862M345.774 -162L345.773 862M395.774 -162L395.773 862M445.774 -162L445.773 862M495.774 -162L495.773 862M545.774 -162L545.773 862M595.774 -162L595.773 862M645.774 -162L645.773 862M695.774 -162L695.773 862M745.774 -162L745.773 862M795.774 -162L795.773 862M845.774 -162L845.773 862M895.774 -162L895.773 862M945.774 -162L945.773 862M995.774 -162L995.773 862M1045.77 -162L1045.77 862M1095.77 -162V862M1145.77 -162V862M1195.77 -162V862M1245.77 -162V862M1295.77 -162V862M1345.77 -162V862M1395.77 -162V862M145.774 -162L145.773 862M95.7735 -162L95.7735 862M45.7735 -162L45.7735 862M1440.27 -18.64L0.273477 -18.6401M1440.27 28.988L0.273475 28.9878M1440.27 76.6159L0.273472 76.6158M1440.27 124.244L0.27347 124.244M1440.27 171.872L0.273468 171.872M1440.27 219.5L0.273466 219.499M1440.27 267.128L0.273464 267.127M1440.27 314.755L0.273462 314.755M1440.27 362.383L0.273459 362.383M1440.27 410.011L0.273457 410.011M1440.27 457.639L0.273455 457.639M1440.27 505.267L0.273453 505.267M1440.27 552.895L0.273451 552.895M1440.27 600.523L0.273448 600.523M1440.27 648.151L0.273446 648.151M1440.27 695.779L0.273444 695.779M1440.27 743.407L0.273442 743.406M1440.27 791.034L0.27344 791.034M1440.27 838.662L0.273438 838.662M1440.27 -66.2679L0.273479 -66.268M1440.27 -113.896L0.273481 -113.896M1440.27 -161.524L0.273483 -161.524" stroke="url(#paint0_linear_1556_8655)" stroke-opacity="0.45"/>
<defs>
<linearGradient id="paint0_linear_1556_8655" x1="0.273444" y1="-155.944" x2="1440.27" y2="265.816" gradientUnits="userSpaceOnUse">
<stop stop-color="white" stop-opacity="0"/>
<stop offset="0.477826" stop-color="white" stop-opacity="0.5"/>
<stop offset="1" stop-color="white" stop-opacity="0.1"/>
</linearGradient>
</defs>
</svg>
