<svg width="138" height="68" viewBox="0 0 138 68" fill="none" xmlns="http://www.w3.org/2000/svg">
<path fill-rule="evenodd" clip-rule="evenodd" d="M69.4493 67.8267H0V0H137.553L69.4493 67.8267ZM68.1041 12.7451L81.5633 12.7478C94.7532 12.7478 100.675 17.3475 100.675 27.3677C100.675 36.3687 94.4841 41.7355 83.9859 41.7355H79.4098V54.6872H59.4902L57.3367 48.4943C55.1833 49.1756 53.0298 49.5806 50.338 49.5806C47.6462 49.5806 45.2235 49.1622 43.07 48.4434L41.1858 54.6872H28.8033L30.1492 51.0852C30.0119 51.1536 29.9447 51.222 29.876 51.2918C29.81 51.3589 29.7428 51.4273 29.6109 51.4982C26.6499 53.9604 22.6121 55.3148 18.036 55.4007L17.2284 55.406C11.8448 55.406 6.4611 53.8987 1.88498 51.3346L6.19191 43.0605C10.768 45.7238 13.4599 46.3219 17.2284 46.2521C19.3819 46.2065 20.7278 45.8418 21.8045 44.8789C22.3429 44.2969 22.6121 43.5728 22.6121 42.7762C22.6121 40.6198 19.6511 39.614 15.8825 38.4527C12.6523 37.5113 9.42212 36.2266 6.4611 34.2553C3.50008 31.9138 1.88498 28.9743 1.88498 24.8305C1.88498 21.8185 3.2309 19.1016 5.11518 16.9613C8.0762 13.885 12.9215 12.029 18.8435 12.029C23.6888 12.0344 29.6109 13.4317 34.187 15.6417L29.3417 23.814C24.4964 21.5128 22.0737 21.2902 19.3819 21.1534C15.3442 20.9388 13.4599 22.3764 13.4599 23.9427C13.1907 25.8309 17.2284 27.5581 20.7278 28.7329C26.3807 30.4816 33.3794 32.8177 34.4562 39.5765L44.6851 12.7451H56.26L68.1041 44.828V12.7451ZM46.0311 39.4477C47.377 39.9359 48.7229 40.2148 50.338 40.2148C51.9531 40.2148 53.299 39.952 54.6449 39.4907L50.338 25.9516L46.0311 39.4477ZM79.4098 32.4529H82.3708C86.4086 32.4529 89.6388 31.1414 89.6388 26.9574C89.6388 22.8887 86.4086 21.5718 82.3708 21.5718H79.4098V32.4529Z" fill="#1976D3"/>
<path d="M86.4078 63.4931C86.4078 61.4199 88.0229 59.8401 89.9072 59.8401C91.7915 59.8401 93.4066 61.4199 93.4066 63.4931C93.4066 65.6441 91.7915 67.1944 89.9072 67.1944C88.0229 67.1944 86.4078 65.6441 86.4078 63.4931ZM89.9072 67.9292C92.3298 67.9292 94.4833 66.0491 94.4833 63.4931C94.4833 60.9746 92.3298 59.124 89.9072 59.124C87.4845 59.124 85.3311 60.9746 85.3311 63.4931C85.3311 66.0491 87.4845 67.9292 89.9072 67.9292ZM89.0996 63.8605H89.9072L91.2531 66.0491H92.0606L90.7147 63.8176C91.2531 63.7264 92.0606 63.3322 92.0606 62.431C92.0606 61.4199 91.2531 60.9746 90.1764 60.9746H88.2921V66.0491H89.0996V63.8605ZM89.0996 63.2061V61.621H90.1764C90.4455 61.621 91.2531 61.7444 91.2531 62.3854C91.2531 63.1552 90.4455 63.2061 89.9072 63.2061H89.0996Z" fill="#1976D3"/>
</svg>
