<svg width="1440" height="832" viewBox="0 0 1440 832" fill="none" xmlns="http://www.w3.org/2000/svg">
<path d="M195.5 -149.21L195.5 981.21M245.5 -149.21L245.5 981.21M295.5 -149.21L295.5 981.21M345.5 -149.21L345.5 981.21M395.5 -149.21L395.5 981.21M445.5 -149.21L445.5 981.21M495.5 -149.21L495.5 981.21M545.5 -149.21L545.5 981.21M595.5 -149.21L595.5 981.21M645.5 -149.21L645.5 981.21M695.5 -149.21L695.5 981.21M745.5 -149.21L745.5 981.21M795.5 -149.21L795.5 981.21M845.5 -149.21L845.5 981.21M895.5 -149.21L895.5 981.21M945.5 -149.21L945.5 981.21M995.5 -149.21L995.5 981.21M1045.5 -149.21L1045.5 981.21M1095.5 -149.21V981.21M1145.5 -149.21V981.21M1195.5 -149.21V981.21M1245.5 -149.21V981.21M1295.5 -149.21V981.21M1345.5 -149.21V981.21M1395.5 -149.21V981.21M145.5 -149.21L145.5 981.21M95.5001 -149.21L95.5 981.21M45.5001 -149.21L45.5 981.21M1440 9.04853L3.93402e-05 9.04839M1440 61.6263L3.71547e-05 61.6261M1440 114.204L3.49691e-05 114.204M1440 166.782L3.27835e-05 166.782M1440 219.359L3.0598e-05 219.359M1440 271.937L2.84124e-05 271.937M1440 324.515L2.62268e-05 324.515M1440 377.093L2.40413e-05 377.092M1440 429.67L2.18557e-05 429.67M1440 482.248L1.96701e-05 482.248M1440 534.826L1.74846e-05 534.826M1440 587.403L1.5299e-05 587.403M1440 639.981L1.31134e-05 639.981M1440 692.559L1.09278e-05 692.559M1440 745.137L8.74227e-06 745.136M1440 797.714L6.55671e-06 797.714M1440 850.292L4.37114e-06 850.292M1440 902.87L2.18557e-06 902.87M1440 955.447L0 955.447M1440 -43.5292L4.15258e-05 -43.5293M1440 -96.1069L4.37114e-05 -96.107M1440 -148.685L4.5897e-05 -148.685" stroke="url(#paint0_linear_1556_7285)" stroke-opacity="0.3"/>
<defs>
<linearGradient id="paint0_linear_1556_7285" x1="6.44832e-06" y1="-142.525" x2="1460.71" y2="245.023" gradientUnits="userSpaceOnUse">
<stop stop-color="white" stop-opacity="0"/>
<stop offset="0.477826" stop-color="white" stop-opacity="0.5"/>
<stop offset="1" stop-color="white" stop-opacity="0.1"/>
</linearGradient>
</defs>
</svg>
