<?xml version="1.0" encoding="UTF-8"?>
<svg xmlns="http://www.w3.org/2000/svg" width="114" height="40" viewBox="0 0 114 40" fill="none">
  <path d="M32.5401 27.7026C30.8281 27.7026 29.3641 27.4066 28.1481 26.8146C26.9321 26.2066 26.0041 25.2706 25.3641 24.0066C24.7401 22.7426 24.4281 21.1346 24.4281 19.1826C24.4281 16.3026 25.1321 14.1666 26.5401 12.7746C27.9641 11.3666 29.9641 10.6626 32.5401 10.6626C33.9481 10.6626 35.2121 10.9026 36.3321 11.3825C37.4521 11.8626 38.3321 12.5826 38.9721 13.5426C39.6281 14.5026 39.9561 15.7106 39.9561 17.1666H36.3561C36.3561 16.3986 36.1961 15.7506 35.8761 15.2226C35.5721 14.6946 35.1321 14.2946 34.5561 14.0226C33.9961 13.7345 33.3401 13.5905 32.5881 13.5905C31.5641 13.5905 30.7161 13.7906 30.0441 14.1906C29.3881 14.5906 28.9001 15.1826 28.5801 15.9666C28.2761 16.7346 28.1241 17.6786 28.1241 18.7986V19.5426C28.1241 20.6946 28.2841 21.6626 28.6041 22.4466C28.9241 23.2146 29.4041 23.7986 30.0441 24.1986C30.7001 24.5826 31.5401 24.7746 32.5641 24.7746C33.3641 24.7746 34.0601 24.6386 34.6521 24.3666C35.2441 24.0946 35.7001 23.6946 36.0201 23.1666C36.3401 22.6386 36.5001 21.9906 36.5001 21.2226H39.9561C39.9561 22.6786 39.6361 23.8866 38.9961 24.8466C38.3721 25.8066 37.5001 26.5266 36.3801 27.0066C35.2601 27.4706 33.9801 27.7026 32.5401 27.7026ZM45.2217 27.7026C44.8057 27.7026 44.3577 27.6546 43.8777 27.5586C43.4137 27.4626 42.9737 27.2946 42.5577 27.0546C42.1417 26.7986 41.7977 26.4386 41.5257 25.9746C41.2697 25.4946 41.1417 24.8866 41.1417 24.1506C41.1417 23.2706 41.3337 22.5426 41.7177 21.9666C42.1017 21.3906 42.6457 20.9426 43.3497 20.6226C44.0697 20.2866 44.9257 20.0546 45.9177 19.9266C46.9097 19.7986 48.0057 19.7346 49.2057 19.7346V18.7986C49.2057 18.4306 49.1417 18.1106 49.0137 17.8386C48.9017 17.5666 48.6937 17.3506 48.3897 17.1906C48.1017 17.0306 47.6937 16.9506 47.1657 16.9506C46.6377 16.9506 46.2057 17.0146 45.8697 17.1425C45.5497 17.2706 45.3177 17.4386 45.1737 17.6466C45.0457 17.8386 44.9817 18.0546 44.9817 18.2946V18.5826H41.7417C41.7257 18.5026 41.7177 18.4306 41.7177 18.3666C41.7177 18.2866 41.7177 18.1906 41.7177 18.0786C41.7177 17.3426 41.9417 16.7106 42.3897 16.1826C42.8377 15.6386 43.4697 15.2225 44.2857 14.9345C45.1017 14.6465 46.0537 14.5025 47.1417 14.5025C48.3097 14.5025 49.2857 14.6545 50.0697 14.9585C50.8697 15.2626 51.4777 15.7106 51.8937 16.3026C52.3257 16.8946 52.5417 17.6386 52.5417 18.5346V24.2706C52.5417 24.5586 52.6217 24.7746 52.7817 24.9186C52.9577 25.0466 53.1497 25.1106 53.3577 25.1106H54.1497V27.2946C53.9897 27.3746 53.7417 27.4546 53.4057 27.5346C53.0697 27.6306 52.6617 27.6786 52.1817 27.6786C51.7177 27.6786 51.3017 27.6066 50.9337 27.4626C50.5817 27.3346 50.2857 27.1506 50.0457 26.9106C49.8057 26.6546 49.6377 26.3506 49.5417 25.9986H49.3737C49.1017 26.3346 48.7657 26.6306 48.3657 26.8866C47.9817 27.1426 47.5257 27.3426 46.9977 27.4866C46.4857 27.6306 45.8937 27.7026 45.2217 27.7026ZM46.3497 25.1826C46.7977 25.1826 47.1977 25.1186 47.5497 24.9906C47.9017 24.8466 48.1977 24.6626 48.4377 24.4386C48.6777 24.1986 48.8617 23.9106 48.9897 23.5746C49.1337 23.2386 49.2057 22.8786 49.2057 22.4946V21.7986C48.3097 21.7986 47.5097 21.8626 46.8057 21.9906C46.1017 22.1026 45.5417 22.3026 45.1257 22.5906C44.7257 22.8786 44.5257 23.2786 44.5257 23.7906C44.5257 24.0786 44.5977 24.3266 44.7417 24.5346C44.8857 24.7426 45.0937 24.9026 45.3657 25.0146C45.6377 25.1266 45.9657 25.1826 46.3497 25.1826ZM60.4396 27.7026C59.5596 27.7026 58.7676 27.6066 58.0636 27.4146C57.3596 27.2226 56.7596 26.9586 56.2636 26.6226C55.7676 26.2706 55.3836 25.8546 55.1116 25.3746C54.8556 24.8946 54.7276 24.3506 54.7276 23.7426C54.7276 23.6786 54.7276 23.6146 54.7276 23.5506C54.7276 23.4866 54.7356 23.4386 54.7516 23.4066H57.9676C57.9676 23.4386 57.9676 23.4706 57.9676 23.5026C57.9676 23.5346 57.9676 23.5666 57.9676 23.5986C57.9836 23.9986 58.1116 24.3266 58.3516 24.5826C58.5916 24.8226 58.9036 24.9986 59.2876 25.1106C59.6876 25.2226 60.1036 25.2786 60.5356 25.2786C60.9196 25.2786 61.2876 25.2466 61.6396 25.1826C62.0076 25.1026 62.3116 24.9666 62.5516 24.7746C62.8076 24.5826 62.9356 24.3346 62.9356 24.0306C62.9356 23.6466 62.7756 23.3506 62.4556 23.1426C62.1516 22.9346 61.7436 22.7666 61.2316 22.6386C60.7356 22.5106 60.1916 22.3666 59.5996 22.2066C59.0556 22.0786 58.5116 21.9346 57.9676 21.7746C57.4236 21.5986 56.9276 21.3746 56.4796 21.1026C56.0476 20.8306 55.6956 20.4786 55.4236 20.0466C55.1516 19.5986 55.0156 19.0386 55.0156 18.3666C55.0156 17.7106 55.1596 17.1426 55.4476 16.6626C55.7356 16.1666 56.1276 15.7586 56.6236 15.4386C57.1356 15.1185 57.7276 14.8865 58.3996 14.7426C59.0876 14.5826 59.8236 14.5025 60.6076 14.5025C61.3436 14.5025 62.0316 14.5826 62.6716 14.7426C63.3116 14.8865 63.8716 15.1105 64.3516 15.4146C64.8316 15.7026 65.2076 16.0706 65.4796 16.5186C65.7516 16.9506 65.8876 17.4386 65.8876 17.9826C65.8876 18.0946 65.8876 18.1986 65.8876 18.2946C65.8876 18.3906 65.8796 18.4546 65.8636 18.4866H62.6716V18.2946C62.6716 18.0066 62.5836 17.7666 62.4076 17.5746C62.2316 17.3666 61.9756 17.2066 61.6396 17.0946C61.3196 16.9826 60.9276 16.9266 60.4636 16.9266C60.1436 16.9266 59.8476 16.9506 59.5756 16.9986C59.3196 17.0466 59.0956 17.1186 58.9036 17.2146C58.7116 17.3106 58.5596 17.4306 58.4476 17.5746C58.3516 17.7026 58.3036 17.8626 58.3036 18.0546C58.3036 18.3266 58.4156 18.5506 58.6396 18.7266C58.8796 18.8866 59.1916 19.0226 59.5756 19.1346C59.9596 19.2466 60.3836 19.3666 60.8476 19.4946C61.4236 19.6546 62.0236 19.8146 62.6476 19.9746C63.2876 20.1186 63.8796 20.3186 64.4236 20.5746C64.9676 20.8306 65.4076 21.1986 65.7436 21.6786C66.0796 22.1426 66.2476 22.7746 66.2476 23.5746C66.2476 24.3426 66.0956 24.9906 65.7916 25.5186C65.5036 26.0466 65.0956 26.4706 64.5676 26.7906C64.0396 27.1106 63.4236 27.3426 62.7196 27.4866C62.0156 27.6306 61.2556 27.7026 60.4396 27.7026ZM68.0635 27.4146V10.0625H71.3995V16.1826H71.5675C71.8395 15.8466 72.1595 15.5586 72.5275 15.3186C72.9115 15.0626 73.3355 14.8625 73.7995 14.7185C74.2795 14.5745 74.7995 14.5025 75.3595 14.5025C76.1915 14.5025 76.9195 14.6545 77.5435 14.9585C78.1675 15.2626 78.6475 15.7426 78.9835 16.3986C79.3355 17.0546 79.5115 17.9106 79.5115 18.9666V27.4146H76.1755V19.4946C76.1755 19.0946 76.1275 18.7586 76.0315 18.4866C75.9355 18.1986 75.7915 17.9666 75.5995 17.7906C75.4235 17.5986 75.1995 17.4626 74.9275 17.3826C74.6555 17.3026 74.3515 17.2626 74.0155 17.2626C73.5195 17.2626 73.0715 17.3826 72.6715 17.6226C72.2715 17.8626 71.9595 18.1906 71.7355 18.6066C71.5115 19.0226 71.3995 19.5026 71.3995 20.0466V27.4146H68.0635ZM81.589 27.4146V10.9505H93.733V13.8786H85.165V17.9586H92.821V20.8626H85.165V27.4146H81.589ZM95.2707 27.4146V10.0625H98.6067V27.4146H95.2707ZM106.877 27.7026C105.501 27.7026 104.333 27.4706 103.373 27.0066C102.413 26.5266 101.685 25.7986 101.189 24.8226C100.693 23.8306 100.445 22.5906 100.445 21.1026C100.445 19.5826 100.693 18.3426 101.189 17.3826C101.685 16.4066 102.413 15.6866 103.373 15.2226C104.333 14.7425 105.501 14.5025 106.877 14.5025C108.285 14.5025 109.461 14.7425 110.405 15.2226C111.365 15.6866 112.093 16.4066 112.589 17.3826C113.085 18.3426 113.333 19.5826 113.333 21.1026C113.333 22.5906 113.085 23.8306 112.589 24.8226C112.093 25.7986 111.365 26.5266 110.405 27.0066C109.461 27.4706 108.285 27.7026 106.877 27.7026ZM106.877 25.1106C107.613 25.1106 108.197 24.9746 108.629 24.7026C109.077 24.4306 109.405 24.0146 109.613 23.4546C109.821 22.8946 109.925 22.2066 109.925 21.3906V20.8146C109.925 19.9986 109.821 19.3106 109.613 18.7506C109.405 18.1906 109.077 17.7746 108.629 17.5026C108.197 17.2146 107.613 17.0706 106.877 17.0706C106.157 17.0706 105.573 17.2146 105.125 17.5026C104.693 17.7746 104.373 18.1906 104.165 18.7506C103.957 19.3106 103.853 19.9986 103.853 20.8146V21.3906C103.853 22.2066 103.957 22.8946 104.165 23.4546C104.373 24.0146 104.693 24.4306 105.125 24.7026C105.573 24.9746 106.157 25.1106 106.877 25.1106Z" fill="black"></path>
  <path d="M3.5653 25.9192C3.27415 25.6818 2.96977 25.4577 2.68744 25.2072C1.38611 24.0512 0.587658 22.5963 0.230341 20.9129C-0.166677 19.0581 -0.0696284 17.2209 0.671473 15.454C1.30229 13.9508 2.33013 12.7904 3.74616 11.9685C4.84458 11.3312 6.02681 10.9576 7.29286 10.9224C9.01327 10.8784 10.7337 10.8565 12.4497 10.9004C14.1613 10.9444 15.7317 11.463 17.0948 12.5267C18.0653 13.2827 18.7932 14.2277 19.2828 15.3529C20.0989 17.2341 20.1827 19.1768 19.7151 21.1459C19.2961 22.904 18.3785 24.3676 16.9625 25.5104C16.8787 25.5764 16.7904 25.6335 16.6625 25.7214C16.6625 25.6027 16.6625 25.5236 16.6625 25.4489C16.6625 24.2094 16.6581 22.9743 16.6669 21.7349C16.6669 21.5283 16.7066 21.3173 16.7728 21.1195C17.3551 19.4493 17.3065 17.8098 16.4596 16.2451C15.7449 14.9177 14.5892 14.1442 13.1246 13.8321C12.7541 13.753 12.3703 13.7266 11.9909 13.7222C10.6102 13.709 9.22502 13.709 7.84427 13.7178C6.46794 13.7266 5.27689 14.2145 4.31522 15.1902C3.50795 16.0078 3.06241 17.0099 2.91683 18.1439C2.75361 19.4097 2.92566 20.6184 3.52559 21.7568C3.58735 21.8711 3.61823 22.0206 3.61823 22.1524C3.62706 23.3919 3.62264 24.627 3.62264 25.8664C3.60059 25.8928 3.58294 25.906 3.5653 25.9192Z" fill="black"></path>
  <path d="M12.7275 21.81C12.7275 20.1354 12.7275 18.4564 12.7275 16.7818C12.7275 16.4917 12.7275 16.4917 13.0099 16.4917C13.8392 16.4917 14.6685 16.4961 15.5023 16.4873C15.6964 16.4873 15.7669 16.5269 15.7669 16.7378C15.7581 19.8585 15.7625 22.9748 15.7669 26.0954C15.7669 26.2449 15.7228 26.3284 15.5861 26.3987C14.7876 26.8075 13.9407 27.0448 13.054 27.1503C12.7408 27.1899 12.732 27.1767 12.732 26.8646C12.7275 25.1812 12.7275 23.4934 12.7275 21.81Z" fill="#EF7065"></path>
  <path d="M8.64746 27.1808C8.64746 24.1173 8.64746 21.0669 8.64746 17.999C9.65765 17.999 10.6634 17.999 11.678 17.999C11.678 21.0582 11.678 24.1085 11.678 27.1808C10.6767 27.1808 9.6753 27.1808 8.64746 27.1808Z" fill="#EF7065"></path>
  <path d="M7.6153 27.225C7.18299 27.1678 6.75509 27.1459 6.34925 27.0448C5.8243 26.9173 5.317 26.7327 4.80088 26.5701C4.64207 26.5217 4.55825 26.4338 4.56267 26.236C4.57149 24.0955 4.56708 21.9594 4.56708 19.8189C4.56708 19.7486 4.5759 19.6738 4.5759 19.5903C5.59491 19.5903 6.59628 19.5903 7.6153 19.5903C7.6153 22.1132 7.6153 24.6361 7.6153 27.225Z" fill="#EF7065"></path>
</svg>
